<?xml version="1.0" encoding="utf-8"?>
<!-- Generator: Adobe Illustrator 19.2.1, SVG Export Plug-In . SVG Version: 6.00 Build 0)  -->
<svg version="1.1" id="layer" xmlns="http://www.w3.org/2000/svg" xmlns:xlink="http://www.w3.org/1999/xlink" x="0px" y="0px"
	 viewBox="0 0 652 652" style="enable-background:new 0 0 652 652;" xml:space="preserve">
<style type="text/css">
	.st0{fill-rule:evenodd;clip-rule:evenodd;fill:#C7A008;}
	.st1{fill:#484522;}
	.st2{fill-rule:evenodd;clip-rule:evenodd;fill:#E6E7E8;}
	.st3{fill:#FFFFFF;}
	.st4{fill:#E8E7D8;}
	.st5{fill:#E2D0C8;}
	.st6{fill-rule:evenodd;clip-rule:evenodd;fill:#7C7531;}
	.st7{fill:#C7A008;}
	.st8{fill:none;stroke:#C7A008;stroke-width:0.1417;stroke-miterlimit:10;}
</style>
<path class="st0" d="M202,321.7c0,49.9-40.4,90.3-90.3,90.3c-49.8,0-90.3-40.4-90.3-90.3c0-49.9,40.4-90.3,90.3-90.3
	C161.6,231.4,202,271.9,202,321.7"/>
<path class="st1" d="M295.8,304.5c2.7,3,4.8,6.3,6.1,9.9c1.3,3.6,2,7.8,2,12.6c0.1,11.4-4.1,20.8-12.4,28.2
	c-8.4,7.4-18.8,11.2-31.2,11.3c-5.7,0-11.5-0.8-17.2-2.6c-5.8-1.7-10.7-3.9-14.9-6.4l-3.9,6.6l-7.3,0l-1.5-44.1l7.3,0
	c1.5,5.4,3.3,10.3,5.4,14.7c2.1,4.4,4.8,8.4,8.1,12.2c3.2,3.5,6.9,6.4,11.1,8.5c4.2,2.1,9.1,3.1,14.7,3.1c4.2,0,7.8-0.6,10.9-1.7
	c3.1-1.1,5.6-2.7,7.5-4.7c1.9-2,3.3-4.4,4.3-7.1c0.9-2.7,1.4-5.8,1.3-9.3c0-5.1-1.5-9.9-4.4-14.4c-2.9-4.4-7.3-7.8-13-10.1
	c-3.9-1.5-8.4-3.2-13.5-5.1c-5.1-1.9-9.5-3.6-13.2-5.3c-7.3-3.2-13-7.5-17-12.7c-4.1-5.3-6.1-12.2-6.2-20.7c0-4.9,0.9-9.5,2.9-13.7
	c2-4.2,4.8-8,8.4-11.4c3.5-3.2,7.6-5.7,12.4-7.5c4.8-1.8,9.8-2.7,15-2.8c5.9,0,11.2,0.8,15.9,2.6c4.7,1.8,9,3.9,12.9,6.3l3.7-6.2
	l7.3,0l1,42.7l-7.4,0c-1.4-4.9-2.9-9.6-4.6-14c-1.7-4.5-3.9-8.5-6.6-12.1c-2.6-3.5-5.8-6.3-9.6-8.3c-3.8-2.1-8.4-3.1-13.8-3
	c-5.7,0-10.6,1.9-14.7,5.6c-4,3.7-6,8.2-6,13.6c0,5.6,1.4,10.2,4,13.8c2.6,3.6,6.4,6.6,11.4,9c4.4,2.1,8.8,3.9,13,5.4
	c4.3,1.5,8.4,3.1,12.4,4.9c3.6,1.6,7.1,3.3,10.5,5.3C290.4,299.6,293.4,301.9,295.8,304.5"/>
<path class="st1" d="M453.1,362.6l-34.7,0.2c-7.8-12-14.7-22.3-21-31.1c-6.2-8.7-13-17.7-20.3-27l-13.2,0.1l0.3,40.8
	c0,2.1,0.4,4,1,5.6c0.7,1.6,2.1,2.8,4.3,3.7c1.1,0.4,3,0.8,5.7,1.1c2.7,0.3,5,0.5,6.9,0.6l0,6.4l-54.4,0.3l0-6.4
	c1.4-0.1,3.5-0.4,6.3-0.7c2.8-0.3,4.7-0.7,5.8-1.2c1.8-0.8,3.1-2,3.9-3.5c0.8-1.5,1.2-3.5,1.2-5.8l-0.6-93.1c0-2.1-0.3-4-0.9-5.6
	c-0.6-1.6-2-2.9-4.3-3.7c-1.5-0.5-3.5-1-5.9-1.5c-2.4-0.4-4.5-0.7-6.2-0.8l0-6.4l59.4-0.4c5.4,0,10.5,0.5,15.3,1.6
	c4.8,1.1,9.1,2.9,13,5.3c3.8,2.4,6.8,5.5,9,9.4c2.3,3.9,3.4,8.6,3.4,14.1c0,5-0.7,9.4-2.2,13.2c-1.5,3.8-3.7,7.1-6.7,9.9
	c-2.7,2.6-6,4.9-9.7,6.8c-3.8,1.9-8,3.6-12.6,4.9c6.4,8.4,11.7,15.4,16,21.1c4.2,5.7,9.4,12.7,15.6,20.9c2.7,3.6,5.1,6.3,7.3,8
	c2.2,1.7,4.3,3.1,6.4,4.2c1.6,0.8,3.5,1.4,5.9,1.8c2.4,0.4,4.3,0.6,5.9,0.7L453.1,362.6z M404.8,267c0-7.8-2.3-13.9-6.8-18.5
	c-4.5-4.5-10.8-6.8-19-6.7l-15.4,0.1l0.3,55.1l11.9-0.1c8.3-0.1,15.3-2.8,20.8-8.1C402.1,283.5,404.9,276.2,404.8,267"/>
<path class="st1" d="M620.4,361.6l-56.9,0.3l0-6.4c2-0.1,4.7-0.3,7.9-0.7c3.2-0.4,5.4-0.9,6.6-1.6c1.9-1.2,3.2-2.5,4.1-4
	c0.9-1.5,1.3-3.3,1.3-5.6l-0.6-93.6l-1.4,0L538.3,360l-4.5,0l-42.5-111.7l-1.2,0l0.5,76.8c0,7.4,0.5,13.1,1.5,16.9
	c1,3.9,2.4,6.6,4.4,8.3c1.3,1.3,4.1,2.5,8.3,3.6c4.2,1.1,6.9,1.7,8.2,1.8l0,6.4l-52,0.3l0-6.4c2.7-0.3,5.6-0.7,8.6-1.4
	c3-0.7,5.3-1.7,6.9-3c2.1-1.7,3.5-4.3,4.3-7.8c0.8-3.5,1.1-9.4,1.1-17.6l-0.4-65.8c0-3.8-0.5-6.9-1.4-9.3c-0.9-2.4-2.2-4.4-3.9-5.9
	c-1.9-1.6-4.2-2.8-6.9-3.6c-2.7-0.8-5.4-1.2-8.1-1.3l0-6.4l43.9-0.3l37.5,96.4l31-81c1.1-3,2.1-6.1,2.9-9.3c0.8-3.2,1.2-5.4,1.3-6.5
	l42-0.3l0,6.4c-1.7,0.1-3.9,0.4-6.5,0.9c-2.6,0.5-4.5,1-5.7,1.4c-2.1,0.7-3.4,2-4.1,3.7c-0.7,1.7-1.1,3.5-1.1,5.5l0.6,92.8
	c0,2.1,0.4,3.9,1.1,5.3c0.7,1.4,2.1,2.7,4.2,3.8c1.1,0.6,3,1.1,5.8,1.6c2.8,0.5,5,0.8,6.6,0.8L620.4,361.6z"/>
<path class="st1" d="M241.9,378.9c-0.3,0-0.8,0.1-1.5,0.2c-0.6,0.1-1.2,0.3-1.6,0.6c-0.4,0.3-0.7,0.9-0.9,1.7
	c-0.2,0.9-0.2,1.9-0.2,3.2v11.2c0,1.4-0.3,2.7-0.9,3.7c-0.6,1-1.4,1.9-2.3,2.6c-1,0.7-2,1.1-3,1.4c-1.1,0.3-2.1,0.4-3,0.4
	c-1.5,0-2.9-0.2-4.1-0.6c-1.2-0.4-2.2-1-3-1.6c-0.8-0.7-1.4-1.5-1.8-2.4c-0.4-0.9-0.6-1.8-0.6-2.8v-15.2l-0.2-1l-0.8-0.8l-1.2-0.4
	l-1.2-0.2v-1.3h10.7v1.3l-1.3,0.2l-1.1,0.3L223,380l-0.2,1.1v14.2c0,0.7,0.1,1.4,0.2,2.2c0.1,0.8,0.5,1.5,0.9,2.1
	c0.5,0.7,1.1,1.2,1.9,1.6c0.8,0.4,1.9,0.6,3.3,0.6c1.3,0,2.4-0.2,3.3-0.6c0.9-0.4,1.6-1,2.1-1.7c0.5-0.7,0.9-1.3,1-2
	c0.2-0.7,0.3-1.4,0.3-2.2v-10.5c0-1.3-0.1-2.4-0.3-3.3c-0.2-0.8-0.5-1.4-0.9-1.7c-0.4-0.3-1-0.5-1.7-0.7c-0.7-0.2-1.3-0.3-1.7-0.3
	v-1.3h10.5V378.9z"/>
<path class="st1" d="M273.3,378.9c-0.3,0-0.9,0.1-1.6,0.3c-0.7,0.2-1.2,0.4-1.5,0.6c-0.4,0.3-0.7,0.9-0.9,1.7
	c-0.2,0.9-0.2,1.9-0.2,3.3v18.8h-1.6l-15.6-21v13.3c0,1.5,0.1,2.6,0.3,3.4c0.2,0.8,0.5,1.4,0.9,1.7c0.3,0.3,0.9,0.5,1.7,0.7
	c0.9,0.2,1.4,0.3,1.7,0.4v1.3H246V402c0.3,0,0.9-0.1,1.6-0.3c0.8-0.2,1.2-0.4,1.4-0.6c0.4-0.3,0.7-0.9,0.9-1.6
	c0.2-0.7,0.2-1.9,0.2-3.6v-12.7l-0.3-1.7l-0.8-1.3c-0.4-0.4-1-0.7-1.8-1c-0.7-0.3-1.3-0.4-1.8-0.5v-1.3h7.3l14.4,19.6v-12.2
	c0-1.5-0.1-2.7-0.3-3.5c-0.2-0.8-0.5-1.3-0.8-1.6c-0.3-0.2-0.9-0.5-1.7-0.7c-0.8-0.2-1.4-0.3-1.7-0.4v-1.3h10.4V378.9z"/>
<polygon class="st1" points="289.6,403.3 278,403.3 278,402 279.4,401.9 280.7,401.6 281.6,401 281.9,399.9 281.9,381.3 
	281.7,380.2 280.7,379.5 279.4,379.1 278,378.9 278,377.6 289.6,377.6 289.6,378.9 288.3,379 286.9,379.3 286,380 285.7,381.1 
	285.7,399.7 286,400.7 286.9,401.5 288.1,401.8 289.6,402 "/>
<path class="st1" d="M319.5,378.9l-1.1,0.2l-1.1,0.5l-1,1l-0.7,1.4c-0.8,1.9-2,4.9-3.6,9c-1.6,4.1-3.3,8.3-5,12.7h-1.5
	c-1.7-4.7-3.4-9.2-5-13.5c-1.6-4.3-2.7-7.3-3.3-8.8l-0.6-1l-1-0.8l-1.1-0.5l-1.1-0.2v-1.3h10.6v1.3c-0.9,0.1-1.7,0.1-2.3,0.3
	c-0.6,0.1-0.9,0.4-0.9,0.7l0.1,0.5l0.1,0.4c0.5,1.2,1.2,3.1,2.2,5.8c1,2.7,2.4,6.5,4.3,11.4c0.9-2.2,2-4.9,3.2-7.9s2-5.1,2.4-6.3
	c0.4-1.1,0.6-1.9,0.7-2.3l0.1-1l-0.4-0.7l-1-0.5l-1.2-0.3l-1.2-0.1v-1.3h9.6V378.9z"/>
<path class="st1" d="M345.1,395.7l-0.5,7.6h-21.3V402l1.4-0.1l1.2-0.2l0.8-0.7l0.2-1.1v-18.5l-0.2-1.1l-0.8-0.8l-1.3-0.4l-1.3-0.2
	v-1.3h19.9v6.2h-1.4c-0.2-0.9-0.8-1.9-1.6-2.9c-0.8-1-1.6-1.6-2.3-1.7l-1.3-0.1c-0.5,0-1.1,0-1.8,0h-4v10.2h2.9c0.9,0,1.6-0.1,2-0.3
	l1.1-0.9l0.7-1.4l0.4-1.7h1.4v10.1h-1.4c-0.1-0.6-0.2-1.2-0.4-1.8c-0.2-0.6-0.4-1.1-0.7-1.4l-1.3-0.9c-0.5-0.1-1.1-0.2-1.9-0.2h-2.9
	v7.7c0,0.8,0.1,1.4,0.2,1.8l0.6,1l1.3,0.4c0.5,0.1,1.3,0.1,2.3,0.1h1.6c0.7,0,1.2,0,1.6-0.1l1.4-0.3l1-0.5c0.6-0.6,1.1-1.5,1.8-2.6
	c0.6-1.2,1-2,1.2-2.6H345.1z"/>
<path class="st1" d="M375.7,403.3h-6.9c-1.5-2.4-2.9-4.5-4.2-6.2c-1.2-1.8-2.6-3.6-4-5.4h-2.6v8.1l0.2,1.1l0.9,0.7l1.1,0.2l1.4,0.1
	v1.3h-10.9V402l1.3-0.1l1.1-0.2l0.8-0.7l0.2-1.2v-18.6l-0.2-1.1l-0.9-0.7l-1.2-0.3l-1.2-0.2v-1.3h11.9c1.1,0,2.1,0.1,3.1,0.3
	c1,0.2,1.8,0.6,2.6,1.1c0.7,0.5,1.3,1.1,1.8,1.9c0.4,0.8,0.7,1.7,0.7,2.8c0,1-0.1,1.9-0.4,2.6c-0.3,0.8-0.7,1.4-1.3,2
	c-0.6,0.5-1.2,1-2,1.3c-0.8,0.4-1.6,0.7-2.5,1c1.3,1.7,2.3,3.1,3.2,4.2c0.8,1.1,1.9,2.5,3.1,4.2c0.5,0.7,1,1.3,1.4,1.6l1.3,0.8
	l1.2,0.4l1.2,0.1V403.3z M366.2,384.1c0-1.6-0.4-2.8-1.3-3.7c-0.9-0.9-2.2-1.4-3.8-1.4h-3.1v11h2.4c1.7,0,3.1-0.5,4.2-1.6
	C365.6,387.4,366.2,385.9,366.2,384.1"/>
<path class="st1" d="M395.6,391.5c0.5,0.6,1,1.3,1.2,2c0.3,0.7,0.4,1.6,0.4,2.5c0,2.3-0.8,4.1-2.5,5.6c-1.7,1.5-3.8,2.2-6.2,2.2
	c-1.1,0-2.3-0.2-3.4-0.5c-1.1-0.4-2.1-0.8-3-1.3l-0.8,1.3h-1.4l-0.3-8.8h1.5c0.3,1.1,0.7,2.1,1.1,2.9c0.4,0.9,0.9,1.7,1.6,2.5
	c0.6,0.7,1.4,1.3,2.2,1.7c0.8,0.4,1.8,0.6,2.9,0.6c0.8,0,1.6-0.1,2.2-0.3c0.6-0.2,1.1-0.5,1.5-0.9l0.9-1.4c0.2-0.5,0.3-1.2,0.3-1.9
	c0-1-0.3-2-0.9-2.9c-0.6-0.9-1.4-1.6-2.6-2c-0.8-0.3-1.7-0.7-2.7-1c-1-0.4-1.9-0.7-2.6-1.1c-1.4-0.7-2.6-1.5-3.4-2.6
	c-0.8-1-1.2-2.4-1.2-4.1c0-1,0.2-1.9,0.6-2.7c0.4-0.8,1-1.6,1.7-2.3c0.7-0.6,1.5-1.1,2.5-1.5c0.9-0.4,1.9-0.5,3-0.5
	c1.2,0,2.2,0.2,3.2,0.5c0.9,0.4,1.8,0.8,2.6,1.3l0.7-1.2h1.4l0.1,8.5h-1.5c-0.3-1-0.6-1.9-0.9-2.8c-0.3-0.9-0.8-1.7-1.3-2.4
	c-0.5-0.7-1.2-1.3-1.9-1.7c-0.8-0.4-1.7-0.6-2.8-0.6c-1.1,0-2.1,0.4-2.9,1.1c-0.8,0.7-1.2,1.6-1.2,2.7c0,1.1,0.3,2,0.8,2.8
	c0.5,0.7,1.3,1.3,2.3,1.8c0.9,0.4,1.8,0.8,2.6,1.1c0.9,0.3,1.7,0.6,2.5,1c0.7,0.3,1.4,0.7,2.1,1.1
	C394.6,390.5,395.1,390.9,395.6,391.5"/>
<polygon class="st1" points="414.6,403.3 403.1,403.3 403.1,402 404.5,401.9 405.8,401.6 406.7,401 406.9,399.9 406.9,381.3 
	406.7,380.2 405.8,379.5 404.4,379.1 403.1,378.9 403.1,377.6 414.6,377.6 414.6,378.9 413.3,379 411.9,379.3 411,380 410.8,381.1 
	410.8,399.7 411,400.7 411.9,401.5 413.2,401.8 414.6,402 "/>
<path class="st1" d="M441.7,384.5h-1.2l-0.6-1.5l-0.9-1.7l-1.2-1.5l-1.2-0.7l-1.4-0.1l-1.6,0h-1.1v20.6l0.3,1.1l0.9,0.8
	c0.2,0.1,0.7,0.2,1.4,0.3c0.7,0.1,1.2,0.2,1.6,0.2v1.3h-12.1V402c0.3,0,0.9-0.1,1.5-0.1c0.7-0.1,1.2-0.2,1.4-0.3l0.9-0.7l0.3-1.2
	V379h-1l-1.4,0l-1.6,0.1l-1.2,0.7l-1.2,1.5l-1,1.7l-0.6,1.5h-1.3v-7h22.4V384.5z"/>
<path class="st1" d="M468.8,378.9l-1,0.2l-1,0.4l-1,0.7c-0.2,0.2-0.5,0.6-1,1.2c-0.9,1.3-1.8,2.7-2.6,4c-0.8,1.4-1.8,3.1-3,5.2
	c-0.5,0.8-0.7,1.4-0.9,1.9c-0.1,0.5-0.2,1.2-0.2,2v4.9l0.3,1.1l0.9,0.8c0.3,0.1,0.7,0.2,1.4,0.3c0.7,0.1,1.2,0.2,1.6,0.2v1.3h-12
	V402c0.3,0,0.8-0.1,1.5-0.1c0.7-0.1,1.1-0.2,1.4-0.3l0.9-0.7l0.3-1.2v-6.2l-0.4-1c-0.2-0.5-0.5-1.1-0.8-1.7
	c-0.7-1.4-1.5-2.9-2.4-4.6c-0.9-1.6-1.6-3-2.3-4.2c-0.4-0.7-0.7-1.2-1-1.6l-1.1-0.9l-1-0.4l-1.1-0.2v-1.3h11v1.3
	c-1.2,0-2.1,0.1-2.6,0.3l-0.8,0.6l0.1,0.4l0.3,0.7l0.6,1.1l0.6,1.2c0.6,1.1,1.1,2.2,1.7,3.2c0.6,1.1,1.4,2.5,2.3,4.2
	c1.9-3.1,3.3-5.4,4.3-7.1c1-1.7,1.5-2.7,1.5-3.1l-0.3-0.7l-0.8-0.4L461,379l-1.1-0.1v-1.3h8.9V378.9z"/>
<path class="st1" d="M491.5,404.1c-1.5,0-2.8-0.2-3.9-0.6c-1.1-0.4-2-0.8-2.7-1.3l-1,1.3h-1.5l1.8-8.9h1.5c0.1,1.1,0.2,2.1,0.4,3
	c0.2,0.9,0.6,1.8,1.1,2.5c0.5,0.8,1.2,1.4,2,1.8c0.8,0.4,1.8,0.6,3,0.6c1.8,0,3.3-0.5,4.4-1.5c1.1-1,1.6-2.4,1.6-4.1
	c0-0.9-0.2-1.8-0.7-2.5c-0.5-0.7-1.2-1.3-2.1-1.7c-0.9-0.4-1.7-0.7-2.6-1c-0.9-0.3-1.7-0.7-2.5-1c-1.1-0.5-2-1.3-2.7-2.3
	c-0.7-1-1-2.1-1-3.3c0-1.2,0.3-2.3,0.8-3.2c0.5-1,1.2-1.8,2.1-2.6c0.8-0.7,1.8-1.2,3-1.7c1.2-0.4,2.3-0.6,3.5-0.6
	c1.1,0,2.1,0.1,3.1,0.4c1,0.3,1.9,0.7,2.9,1.4l1-1.2h1.5l-1.8,8.6h-1.5c0-0.9-0.1-1.9-0.3-2.9c-0.1-1-0.4-1.8-0.8-2.5
	c-0.4-0.7-1-1.3-1.7-1.7c-0.7-0.4-1.7-0.6-2.9-0.6c-1.4,0-2.6,0.5-3.6,1.5c-1,1-1.5,2.2-1.5,3.5c0,0.9,0.2,1.7,0.5,2.3
	c0.4,0.6,0.9,1.1,1.7,1.5c0.8,0.4,1.6,0.8,2.5,1.1c0.9,0.3,1.7,0.6,2.4,0.9c1.4,0.7,2.5,1.4,3.3,2.4c0.8,0.9,1.2,2.1,1.2,3.4
	c0,1.3-0.3,2.5-0.8,3.6c-0.6,1.1-1.3,2.1-2.3,2.8c-1,0.8-2.1,1.4-3.3,1.8C494.3,403.9,493,404.1,491.5,404.1"/>
<path class="st1" d="M520.4,377.6l-0.3,1.2l-1.5,0.2l-1.4,0.3l-1.1,0.7l-0.5,1.1l-4.4,19l-0.1,0.3l0,0.3l0.2,0.7l0.7,0.5
	c0.2,0.1,0.6,0.2,1.2,0.3c0.6,0.1,1.1,0.2,1.4,0.2l-0.3,1.2h-11.7l0.3-1.2c0.3,0,0.8-0.1,1.5-0.1c0.6,0,1.1-0.1,1.4-0.2l1.1-0.7
	l0.5-1.1l4.4-19l0.1-0.3l0-0.3l-0.2-0.6l-0.7-0.5l-1.3-0.4l-1.3-0.2l0.3-1.2H520.4z"/>
<path class="st1" d="M547.3,377.6l-0.3,1.2l-0.7,0.1l-1.2,0.2l-1.4,0.5l-1.3,0.8c-1.6,1.4-3.3,3-5.2,4.6c-1.8,1.6-3.6,3.1-5.2,4.4
	c1.1,1.7,2.1,3.4,3.1,5c1,1.7,2,3.3,2.9,4.9l1.1,1.6l1.2,1l1.1,0.4l1.2,0.1l-0.3,1.2h-6.6c-1-2.1-2-4.2-3.2-6.2
	c-1.2-2-2.4-4.1-3.8-6.1h-1l-2,8.8l-0.1,0.3l0,0.3l0.1,0.7l0.6,0.5l1,0.3l1.2,0.2l-0.3,1.2h-10.8l0.3-1.2l1.3-0.1l1.2-0.2l1-0.7
	l0.5-1.1l4.4-18.9l0.1-0.3l0-0.3l-0.2-0.7l-0.5-0.5l-1-0.4l-1.2-0.3l0.3-1.2h10.8l-0.3,1.2l-1.3,0.2l-1.2,0.3l-1,0.7l-0.5,1.1
	l-2.1,9.2h0.4c1.7-1.2,3.5-2.6,5.2-4c1.7-1.5,3.1-2.7,4.2-3.8c0.7-0.7,1.2-1.2,1.5-1.7l0.5-1.1l-0.6-0.6c-0.4-0.1-1-0.2-1.8-0.3
	l0.3-1.2H547.3z"/>
<path class="st1" d="M573.3,377.6l-0.3,1.2l-0.7,0.1l-1.2,0.2l-1.4,0.5l-1.3,0.8c-1.6,1.4-3.3,3-5.2,4.6c-1.8,1.6-3.6,3.1-5.2,4.4
	c1.1,1.7,2.1,3.4,3.1,5c1,1.7,2,3.3,2.9,4.9l1.1,1.6l1.2,1l1.1,0.4l1.2,0.1l-0.3,1.2h-6.6c-1-2.1-2.1-4.2-3.2-6.2
	c-1.2-2-2.4-4.1-3.8-6.1h-1l-2,8.8l-0.1,0.3l0,0.3l0.1,0.7l0.6,0.5l1,0.3l1.2,0.2l-0.3,1.2h-10.8l0.3-1.2l1.3-0.1l1.2-0.2l1-0.7
	l0.5-1.1l4.4-18.9l0.1-0.3l0-0.3l-0.2-0.7l-0.5-0.5l-1-0.4l-1.2-0.3l0.3-1.2h10.8l-0.3,1.2l-1.3,0.2l-1.2,0.3l-1,0.7l-0.5,1.1
	l-2.1,9.2h0.4c1.7-1.2,3.5-2.6,5.2-4c1.7-1.5,3.1-2.7,4.2-3.8c0.7-0.7,1.2-1.2,1.5-1.7l0.5-1.1l-0.6-0.6c-0.4-0.1-1-0.2-1.8-0.3
	l0.3-1.2H573.3z"/>
<path class="st1" d="M587,377.6l-0.3,1.2l-1.5,0.2l-1.3,0.3l-1.1,0.7l-0.5,1.1l-4.4,19l-0.1,0.3l0,0.3l0.2,0.7l0.7,0.5
	c0.2,0.1,0.6,0.2,1.2,0.3c0.6,0.1,1.1,0.2,1.4,0.2l-0.3,1.2h-11.7l0.3-1.2c0.3,0,0.8-0.1,1.5-0.1c0.6,0,1.1-0.1,1.4-0.2l1.1-0.7
	l0.5-1.1l4.4-19l0.1-0.3l0-0.3l-0.2-0.6l-0.7-0.5l-1.3-0.4l-1.3-0.2l0.3-1.2H587z"/>
<path class="st1" d="M621.4,377.6l-0.3,1.2l-1.4,0.2l-1.2,0.3l-1,0.8l-0.5,1.1l-4.4,18.9l-0.1,0.3l0,0.3l0.2,0.7l0.6,0.5l1.1,0.3
	l1.3,0.2l-0.3,1.2H604l0.3-1.2c0.4,0,1-0.1,1.6-0.1c0.7-0.1,1.1-0.2,1.4-0.3l1-0.8l0.5-1.1l4.5-19.3h-0.2L599,403.1h-0.9l-3.3-22.9
	h-0.2l-3.7,15.9c-0.2,0.7-0.3,1.3-0.4,1.9l-0.1,1.5l0.1,1l0.4,0.7c0.2,0.3,0.7,0.5,1.4,0.7c0.7,0.2,1.2,0.3,1.7,0.4l-0.3,1.2h-10.5
	l0.3-1.2l1.7-0.3l1.6-0.6c0.5-0.3,0.9-0.9,1.2-1.6c0.3-0.7,0.7-1.9,1-3.5l3.1-13.5l0.1-0.8l0.1-0.7l-0.2-1l-0.4-0.7l-1.3-0.7
	l-1.5-0.3l0.3-1.2h8.8l2.8,19.5l10.1-16.3c0.4-0.6,0.7-1.3,1-1.9c0.3-0.7,0.5-1.1,0.5-1.3H621.4z"/>
<path class="st2" d="M188.7,322c0,42.6-34.6,77.3-77.2,77.3c-42.7,0-77.2-34.6-77.2-77.3c0-42.7,34.6-77.3,77.2-77.3
	C154.2,244.7,188.7,279.3,188.7,322"/>
<path class="st3" d="M193,317.3l1-1l1.1,0.9l-1,1.1C193.6,318.3,193.1,317.9,193,317.3"/>
<path class="st3" d="M193.2,320.7l1-1l1.1,1c0,0.5-0.4,1-1,1L193.2,320.7z"/>
<polygon class="st3" points="193.2,324.1 194.2,323.1 195.2,324.1 194.2,325.1 "/>
<path class="st3" d="M193,327.4l1.1-0.9c0.6,0,1,0.5,1,1c-0.1,0.6-0.5,0.9-1.1,0.9C193.4,328.5,193,328.1,193,327.4"/>
<path class="st3" d="M193,317.3l1-1l1.1,0.9l-1,1.1C193.6,318.3,193.1,317.9,193,317.3"/>
<path class="st3" d="M193.2,320.7l1-1l1.1,1c0,0.5-0.4,1-1,1L193.2,320.7z"/>
<polygon class="st3" points="193.2,324.1 194.2,323.1 195.2,324.1 194.2,325.1 "/>
<path class="st3" d="M193,327.4l1.1-0.9c0.6,0,1,0.5,1,1c-0.1,0.6-0.5,0.9-1.1,0.9C193.4,328.5,193,328.1,193,327.4"/>
<path class="st1" d="M196.4,321.7c0,46.8-37.9,84.6-84.6,84.6c-46.8,0-84.6-37.9-84.6-84.6c0-46.8,37.9-84.6,84.6-84.6
	C158.5,237.1,196.4,275,196.4,321.7"/>
<path class="st1" d="M198.6,323.2c-0.3,20.2-7.5,39.6-22.1,56.1c-12.1,13.6-27.1,22.5-44.8,26.8c-8.1,1.9-16.3,2.6-24.6,2.1
	c-20.1-1.3-37.7-8.6-52.7-21.9c-13-11.5-21.9-25.7-26.6-42.5c-2.4-8.5-3.3-17.1-2.9-25.9c0.9-19.2,7.5-36.3,19.8-51.1
	c9.6-11.5,21.5-20,35.4-25.5c6.7-2.6,13.7-4.4,20.9-5.2c5.7-0.7,11.4-0.9,17.1-0.5c17.3,1.3,32.9,7.1,46.7,17.8
	c15.4,11.9,25.7,27.2,30.8,46C197.7,306.4,198.6,313.9,198.6,323.2 M109.5,243.5c-1.7,0.1-5.1,0.3-8.5,0.7
	c-7.2,0.9-14.1,2.8-20.7,5.7c-12.2,5.3-22.4,13.2-30.5,23.7c-9.1,11.6-14.4,24.8-16.1,39.4c-0.7,6.4-0.6,12.9,0.3,19.3
	c1.4,10,4.6,19.5,10,28c14.9,23.6,36.4,36.3,64.1,38.4c9,0.7,17.9-0.4,26.6-3.1c15.1-4.6,27.7-12.9,37.6-25.2
	c10.1-12.5,15.5-26.9,16.8-42.9c0.6-8.7,0.1-17.3-2.3-25.6c-7.4-26.1-23.8-44.1-49.2-53.8C129.1,244.9,120.2,243.5,109.5,243.5
	 M191.7,291.1c-2.2,0.8-4.2,1.5-6.3,2.3c0.4,1.2,0.8,2.2,1.2,3.3c2.2-0.8,4.2-1.5,6.3-2.2C192.5,293.4,192.1,292.3,191.7,291.1
	 M175.4,378.6c0.9-1,1.7-2,2.6-3c-1.7-1.3-3.3-2.6-4.9-3.8c-0.8,0.9-1.5,1.8-2.3,2.7C172.4,375.8,173.8,377.1,175.4,378.6
	 M191.7,351.7c0.4-1.2,0.8-2.3,1.2-3.4c-2.1-0.7-4-1.4-6.1-2.2c-0.4,1.1-0.7,2.2-1.1,3.3C187.7,350.2,189.7,350.9,191.7,351.7
	 M165.6,255.4c-1.4,1.7-2.7,3.3-4.1,4.9c0.9,0.8,1.7,1.5,2.6,2.2c1.4-1.6,2.8-3.2,4.2-4.8C167.4,256.9,166.5,256.1,165.6,255.4
	 M197.2,316.5c-0.1-1.2-0.2-2.3-0.3-3.5c-2.3,0.3-4.5,0.5-6.6,0.7c0.1,0.9,0.1,1.7,0.2,2.5l0.4,0.5
	C192.9,316.7,195,316.6,197.2,316.5 M139.5,395.6c-1.1,0.4-2,0.7-3,1c0.7,2.1,1.3,4.1,2,6.2c1.2-0.4,2.2-0.8,3.4-1.2
	C141.1,399.5,140.3,397.6,139.5,395.6 M183.7,275.3c-1.9,1.2-3.7,2.4-5.6,3.6c0.6,0.9,1.1,1.8,1.7,2.7c1.9-1.1,3.8-2.2,5.7-3.4
	C184.8,277.3,184.3,276.4,183.7,275.3 M161.9,382.9c1.4,1.6,2.7,3.1,4.1,4.7c0.9-0.8,1.8-1.6,2.9-2.5c-1.6-1.4-3.1-2.8-4.6-4.2
	C163.6,381.5,162.8,382.1,161.9,382.9 M106.4,406.7c0.1-2.3,0.2-4.5,0.3-6.7c-1-0.1-2-0.2-3.1-0.3c-0.2,2.3-0.4,4.4-0.6,6.7
	C104.2,406.5,105.3,406.6,106.4,406.7 M131.6,398c-1,0.2-2,0.5-3,0.7c0.4,2.2,0.8,4.3,1.2,6.4c1.2-0.3,2.3-0.5,3.4-0.8
	C132.7,402.1,132.1,400,131.6,398 M115.8,406.9c1.2-0.1,2.3-0.2,3.5-0.2c-0.2-2.2-0.4-4.4-0.6-6.6c-1.1,0.1-2,0.2-2.9,0.2V406.9z
	 M125.3,405.9c0.9-0.2,1.8-0.3,2.6-0.4l0.5-0.8c-0.2-1.1-0.4-2.3-0.7-3.4c-0.2-0.8-0.3-1.6-0.5-2.4c-1.1,0.2-2.1,0.3-3.1,0.5
	C124.5,401.6,124.9,403.7,125.3,405.9 M157.7,393.7c-1.1-1.8-2.2-3.6-3.3-5.4c-1,0.6-1.9,1.1-2.8,1.7c1.1,1.8,2.1,3.6,3.1,5.5
	C155.7,394.9,156.6,394.3,157.7,393.7 M83.4,394.9c-0.7,2.1-1.3,4.1-2,6.2c1,0.4,2,0.7,3.1,1.1c0.6-2,1.2-4,1.8-5.9l-0.2-0.5
	C85.2,395.5,84.3,395.2,83.4,394.9 M97.2,405.6c0.4-2.2,0.7-4.4,1.1-6.6c-1-0.2-1.9-0.4-2.9-0.6c-0.5,2.2-1,4.3-1.5,6.5
	C95.1,405.2,96.1,405.4,97.2,405.6 M190.3,328.9c2.2,0.2,4.4,0.5,6.6,0.7c0.1-1.1,0.2-2.2,0.3-3.3c-2.3-0.1-4.4-0.2-6.6-0.3
	C190.4,326.9,190.4,327.8,190.3,328.9 M61.7,390.4c1,0.7,1.9,1.3,2.8,1.9c1.1-1.8,2.2-3.6,3.3-5.4c-0.9-0.6-1.7-1.2-2.6-1.8
	C64,386.9,62.8,388.6,61.7,390.4 M196.2,335.3c-2.1-0.3-4.1-0.6-6-0.9l-0.6,0.3c-0.2,0.8-0.3,1.6-0.4,2.5c2.2,0.5,4.3,0.9,6.4,1.4
	C195.8,337.5,195.9,336.4,196.2,335.3 M193.3,295.8c-2.2,0.8-4.3,1.5-6.3,2.2c0.3,0.9,0.5,1.8,0.8,2.7c2.2-0.6,4.3-1.2,6.5-1.8
	C193.9,297.8,193.6,296.9,193.3,295.8 M177.6,267.2c-0.8-0.9-1.4-1.7-2.2-2.5c-1.6,1.5-3.1,3-4.7,4.5c0.6,0.7,1.2,1.4,1.9,2.2
	C174.3,269.9,175.9,268.6,177.6,267.2 M195.3,339.9c-2.2-0.5-4.3-0.9-6.4-1.4c-0.2,1-0.4,1.9-0.6,2.9c2.1,0.6,4.2,1.1,6.3,1.7
	C194.8,341.9,195,341,195.3,339.9 M182.2,286.2c0.4,0.9,0.8,1.7,1.2,2.5c2.1-0.9,4.1-1.7,6.2-2.6c-0.5-1-1-2-1.4-3
	C186.2,284.2,184.2,285.2,182.2,286.2 M178.6,364c1.8,1.1,3.5,2.2,5.3,3.3c0.6-0.9,1.1-1.8,1.7-2.8c-1.8-1.1-3.6-2.2-5.4-3.3
	C179.6,362.2,179.1,363.1,178.6,364 M176.2,367.6c1.7,1.2,3.4,2.4,5.1,3.7c0.7-1,1.3-1.9,1.9-2.8c-1.8-1.1-3.5-2.2-5.3-3.3
	C177.3,366,176.8,366.7,176.2,367.6 M120.1,399.9c0.2,2.2,0.4,4.4,0.6,6.6c1.1-0.1,2.1-0.3,3.3-0.4c-0.4-2.2-0.7-4.3-1.1-6.5
	C121.9,399.7,121.1,399.8,120.1,399.9 M197.3,320.9c-0.1-1-0.1-2-0.1-3c-2.3,0.1-4.4,0.2-6.6,0.3v2.7H197.3z M50.1,371.3
	c-1.5,1.3-3,2.5-4.5,3.8c0.8,0.9,1.5,1.8,2.3,2.7c1.5-1.4,2.9-2.8,4.4-4.1C51.4,372.8,50.8,372.1,50.1,371.3 M32.3,329.9
	c-1.9,0.3-3.7,0.5-5.6,0.8c0.2,1.2,0.3,2.4,0.5,3.6c1.9-0.4,3.7-0.7,5.5-1.1C32.6,332.2,32.5,331.1,32.3,329.9 M57.4,387
	c1.3-1.6,2.6-3.2,3.9-4.8c-0.8-0.7-1.6-1.3-2.4-2c-1.4,1.5-2.7,3-4.1,4.6C55.7,385.6,56.5,386.3,57.4,387 M144.2,393.7
	c0.9,2,1.7,3.9,2.5,5.9c1-0.5,2-1,3-1.4c-1-1.9-2-3.7-3-5.6C145.9,392.9,145.1,393.3,144.2,393.7 M87.6,396.4
	c-0.7,2.1-1.3,4.2-2,6.3c1.1,0.3,2,0.6,3,0.9c0.6-2.2,1.1-4.3,1.7-6.4C89.5,396.9,88.6,396.7,87.6,396.4 M189,305.6
	c0.2,1,0.4,1.9,0.6,2.8c2.3-0.4,4.4-0.8,6.6-1.1c-0.2-1-0.4-2-0.6-2.9C193.3,304.8,191.2,305.2,189,305.6 M98.6,405.8
	c1.1,0.1,2.1,0.3,3.2,0.4c0.2-2.3,0.4-4.5,0.5-6.7c-1-0.1-1.8-0.2-2.7-0.3C99.3,401.5,98.9,403.6,98.6,405.8 M196.3,308.6
	c-2.3,0.4-4.4,0.8-6.6,1.2c0.1,1,0.3,1.8,0.4,2.7c2.1-0.2,4.1-0.4,6.1-0.6l0.5-0.5C196.6,310.4,196.4,309.5,196.3,308.6
	 M196.7,330.9c-2.2-0.2-4.3-0.5-6.5-0.7c-0.1,1-0.2,1.9-0.4,2.8c2,0.3,4,0.6,5.9,0.9l0.7-0.4C196.6,332.6,196.6,331.8,196.7,330.9
	 M110.8,406.9v-6.7H108c-0.1,2.2-0.2,4.3-0.3,6.6C108.8,406.8,109.7,406.9,110.8,406.9 M68.3,394.8c1-1.9,2-3.8,3.1-5.6
	c-0.9-0.5-1.7-1-2.5-1.5c-1.1,1.8-2.2,3.6-3.3,5.4C66.5,393.6,67.4,394.2,68.3,394.8 M166.9,265.2c1.6-1.6,3.1-3,4.7-4.5
	c-0.8-0.7-1.5-1.4-2.3-2.1c-1.4,1.6-2.8,3.2-4.1,4.7C165.8,264,166.4,264.6,166.9,265.2 M138.3,240.6c-0.7,1.9-1.3,3.8-2,5.6
	c1,0.3,1.9,0.7,2.8,1c0.9-1.8,1.7-3.6,2.5-5.5C140.5,241.4,139.5,241,138.3,240.6 M181.2,271.7c-1.8,1.3-3.6,2.5-5.4,3.8
	c0.6,0.8,1.1,1.6,1.6,2.3c1.9-1.2,3.7-2.4,5.5-3.6C182.3,273.4,181.8,272.6,181.2,271.7 M158.3,257.7c0.8,0.6,1.5,1.1,2.2,1.7
	c1.3-1.6,2.7-3.2,4.1-4.9c-0.9-0.7-1.7-1.3-2.6-2C160.7,254.3,159.5,256,158.3,257.7 M30.5,348c0.4,1.2,0.8,2.3,1.2,3.4
	c1.8-0.7,3.5-1.4,5.2-2.1c-0.4-1-0.7-1.9-1.1-2.9C34.1,346.8,32.4,347.4,30.5,348 M175,274.5c1.8-1.3,3.6-2.5,5.4-3.8
	c-0.7-0.8-1.3-1.6-2-2.5c-1.7,1.4-3.3,2.8-5,4.2C174,273.1,174.5,273.8,175,274.5 M161.5,391.1c-1.3-1.7-2.6-3.4-3.8-5
	c-0.8,0.5-1.5,1-2.2,1.5c1.1,1.8,2.2,3.5,3.3,5.4C159.7,392.3,160.6,391.7,161.5,391.1 M45.1,364.7c-1.6,1.1-3.2,2.1-4.9,3.2
	c0.7,1,1.3,1.9,1.9,2.8c1.6-1.2,3.1-2.3,4.7-3.5C46.3,366.4,45.7,365.6,45.1,364.7 M150.6,245.7c-1,1.9-1.9,3.6-2.9,5.4
	c0.9,0.5,1.7,0.9,2.6,1.4c1-1.8,2.1-3.6,3.1-5.4C152.4,246.6,151.5,246.2,150.6,245.7 M76.2,391.7c-0.9,1.9-1.9,3.8-2.8,5.8
	c1,0.5,1.8,0.9,2.8,1.3c0.9-2,1.7-4,2.6-6C77.8,392.5,77,392.1,76.2,391.7 M48.6,378.8c0.9,0.8,1.7,1.5,2.5,2.2
	c1.2-1.3,2.6-2.8,4-4.2c-0.7-0.7-1.4-1.4-2.1-2C51.6,376,50.2,377.3,48.6,378.8 M81.1,242.1c0.7,1.8,1.4,3.5,2.2,5.2
	c1-0.4,2-0.7,2.9-1c-0.6-1.8-1.1-3.6-1.7-5.4C83.3,241.3,82.2,241.7,81.1,242.1 M157.2,257c1.2-1.7,2.4-3.4,3.7-5.1
	c-0.9-0.6-1.7-1.1-2.6-1.7c-1.2,1.8-2.3,3.4-3.5,5.2C155.6,255.8,156.4,256.4,157.2,257 M72.2,396.9c1-2,1.9-3.9,2.8-5.8
	c-0.9-0.5-1.6-0.9-2.5-1.3c-1,1.9-2,3.7-3.1,5.6C70.4,395.9,71.2,396.4,72.2,396.9 M67.6,255.4c-1-1.6-2-3.2-3-4.8
	c-1,0.7-1.9,1.3-2.8,2c1.1,1.6,2.2,3.1,3.3,4.6C65.9,256.5,66.7,256,67.6,255.4 M36.9,293.8c-1.8-0.8-3.6-1.5-5.4-2.2
	c-0.4,1.2-0.8,2.3-1.2,3.4c1.9,0.5,3.7,1,5.6,1.6C36.3,295.6,36.6,294.7,36.9,293.8 M40.1,274.8c1.6,1.1,3.2,2.1,4.8,3.2
	c0.6-0.8,1.1-1.6,1.7-2.4c-1.5-1.2-3-2.4-4.5-3.6C41.4,273,40.8,273.9,40.1,274.8 M26.6,312.1c2,0.1,3.9,0.3,5.7,0.4
	c0.1-1,0.3-1.9,0.4-2.9c-1.9-0.3-3.8-0.6-5.7-0.9C26.9,309.9,26.8,310.9,26.6,312.1 M103.3,236.9c0.2,1.8,0.4,3.5,0.6,5.2l0.4,0.4
	c0.9,0,1.8-0.1,2.7-0.2c-0.1-1.9-0.2-3.7-0.3-5.6C105.6,236.7,104.5,236.8,103.3,236.9 M181.6,285c2-1,3.9-2,5.9-3
	c-0.5-0.9-1-1.7-1.5-2.6c-2,1.2-3.8,2.3-5.7,3.4C180.8,283.5,181.2,284.2,181.6,285 M35.6,297.7c-1.9-0.5-3.7-1-5.6-1.6
	c-0.3,1.1-0.6,2-0.9,3.1c1.9,0.5,3.7,1,5.6,1.5C35,299.7,35.2,298.8,35.6,297.7 M154.5,247.8c-1.1,1.8-2.1,3.6-3.1,5.4
	c0.8,0.5,1.6,0.9,2.3,1.4c1.2-1.8,2.3-3.4,3.5-5.2C156.3,248.9,155.5,248.4,154.5,247.8 M146.5,250.5c1-1.8,1.9-3.6,2.9-5.4
	c-1-0.5-2-0.9-2.9-1.3c-0.8,1.9-1.6,3.7-2.4,5.6C144.9,249.7,145.7,250.1,146.5,250.5 M120.8,236.9c-0.3,2-0.5,3.8-0.8,5.8
	c1,0.1,2,0.2,2.9,0.3c0.4-1.9,0.8-3.7,1.2-5.7C123,237.2,122,237.1,120.8,236.9 M37.1,279.8c-0.5,1-1,1.8-1.5,2.8
	c1.8,0.9,3.4,1.8,5.1,2.7c0.5-0.9,1-1.8,1.5-2.7C40.5,281.7,38.8,280.8,37.1,279.8 M61,260.2c-1.3-1.5-2.5-2.9-3.8-4.3
	c-0.9,0.7-1.7,1.4-2.6,2.2c1.5,1.3,2.8,2.6,4.3,3.8C59.5,261.5,60.2,260.9,61,260.2 M42.4,360.4c-0.5-0.9-1-1.8-1.5-2.7
	c-1.7,0.9-3.4,1.7-5.1,2.6c0.5,1,1,1.9,1.6,2.8C39.1,362.2,40.7,361.3,42.4,360.4 M132.9,239.1c-1-0.2-2-0.5-3-0.7
	c-0.5,2-1,3.8-1.4,5.7c1,0.3,2,0.5,3,0.7C131.9,242.9,132.3,241.1,132.9,239.1 M47.5,265.3c-0.7,0.9-1.4,1.7-2.2,2.5
	c1.6,1.2,3,2.4,4.5,3.5c0.7-0.8,1.3-1.5,1.9-2.2C50.3,267.8,49,266.6,47.5,265.3 M128.6,238.1c-1.1-0.2-2.1-0.4-3.2-0.6
	c-0.4,2-0.8,3.8-1.2,5.7c1,0.2,1.9,0.4,2.9,0.5C127.6,241.9,128.1,240,128.6,238.1 M191.3,352.9c-2.1-0.8-4-1.5-6-2.3
	c-0.4,0.9-0.7,1.6-1,2.5c2,0.9,3.9,1.7,5.8,2.6C190.5,354.8,190.9,353.9,191.3,352.9 M188.7,304.3c2.3-0.4,4.4-0.9,6.6-1.3
	c-0.3-1-0.5-1.9-0.7-2.8c-2.2,0.6-4.3,1.2-6.5,1.8C188.3,302.8,188.5,303.5,188.7,304.3 M82.1,394.4c-0.8-0.3-1.5-0.6-2.3-0.9
	c-0.9,2-1.7,4-2.6,6c1,0.4,1.9,0.8,2.8,1.2C80.8,398.5,81.5,396.5,82.1,394.4 M91.6,397.5c-0.6,2.2-1.1,4.3-1.7,6.4
	c1,0.2,1.8,0.5,2.7,0.7c0.5-2.2,1-4.3,1.5-6.5C93.3,398,92.5,397.8,91.6,397.5 M189.6,356.9c-2-0.9-3.9-1.7-5.8-2.6
	c-0.4,0.8-0.7,1.6-1.1,2.4c1.9,1,3.8,1.9,5.7,2.8C188.7,358.7,189.1,357.8,189.6,356.9 M153.5,396.1c-1.1-1.9-2.1-3.7-3.1-5.5
	c-0.8,0.4-1.6,0.8-2.4,1.3c1,1.9,2,3.7,3,5.6C151.9,397,152.6,396.6,153.5,396.1 M187.7,360.7l-5.7-2.8c-0.4,0.8-0.8,1.5-1.2,2.2
	c1.8,1.1,3.6,2.2,5.4,3.3C186.8,362.5,187.2,361.7,187.7,360.7 M29,343c1.9-0.5,3.6-1,5.4-1.5c-0.3-1-0.5-2-0.7-2.9
	c-1.9,0.4-3.7,0.8-5.5,1.1C28.5,340.9,28.7,341.9,29,343 M116,236.6v5.8c0.9,0.1,1.8,0.1,2.7,0.2c0.3-2,0.5-3.8,0.8-5.7
	C118.3,236.7,117.3,236.7,116,236.6 M160.9,383.7c-0.7,0.6-1.4,1.1-2.1,1.6c1.3,1.7,2.5,3.3,3.8,5c0.8-0.7,1.6-1.2,2.4-1.9
	C163.6,386.8,162.2,385.3,160.9,383.7 M32,316.7c0.1-0.9,0.1-1.9,0.2-2.8c-1.9-0.1-3.8-0.3-5.7-0.4c-0.1,1.2-0.1,2.2-0.2,3.3H32z
	 M102,237c-1,0.1-1.8,0.2-2.7,0.4l-0.4,0.6c0.3,1.7,0.6,3.3,0.9,5c1-0.1,1.9-0.3,2.9-0.4C102.4,240.7,102.2,238.9,102,237
	 M73.3,245.5c0.8,1.7,1.6,3.4,2.5,5.1c0.9-0.5,1.8-0.9,2.8-1.4c-0.8-1.7-1.6-3.3-2.4-5.1C75.2,244.6,74.3,245.1,73.3,245.5
	 M94.1,238.3c0.5,1.9,0.9,3.6,1.4,5.5c1-0.2,1.9-0.3,2.9-0.5c-0.4-1.9-0.7-3.7-1-5.5C96.3,237.9,95.3,238.1,94.1,238.3 M172.7,261.9
	c-1.5,1.5-3.1,3-4.6,4.5c0.6,0.6,1.1,1.2,1.7,1.8c1.6-1.5,3.1-3,4.8-4.5C173.9,263,173.2,262.4,172.7,261.9 M33.5,305.5
	c-1.9-0.4-3.7-0.8-5.7-1.2c-0.2,1.1-0.4,2.1-0.6,3.1c2,0.3,3.8,0.6,5.7,0.9C33.2,307.3,33.3,306.4,33.5,305.5 M51.6,261
	c1.4,1.4,2.7,2.7,4,4.1c0.7-0.7,1.4-1.3,2.2-2.1c-1.4-1.3-2.8-2.5-4.2-3.8C53,259.7,52.3,260.3,51.6,261 M168,377.3
	c1.5,1.5,3,2.9,4.4,4.1c0.8-0.6,1.4-1.2,2.2-1.8c-1.6-1.5-3.1-2.8-4.5-4.1C169.3,376.1,168.7,376.7,168,377.3 M88.7,239.6
	c-1.1,0.3-2,0.6-3,0.9c0.6,1.8,1.1,3.6,1.7,5.4c1-0.3,2-0.6,3-0.9C89.8,243.2,89.3,241.4,88.7,239.6 M54.6,266.1
	c-1.3-1.3-2.7-2.7-4.1-4.1c-0.7,0.7-1.4,1.4-2.1,2.2c1.5,1.3,2.8,2.6,4.2,3.8C53.3,267.4,54,266.8,54.6,266.1 M44.3,279.1
	c-1.7-1.1-3.2-2.1-4.8-3.2c-0.6,0.9-1.1,1.8-1.7,2.7c1.7,1,3.4,1.9,5.1,2.8C43.3,280.6,43.8,279.9,44.3,279.1 M184.9,292.1
	c2.1-0.8,4.2-1.5,6.3-2.3c-0.4-0.9-0.7-1.7-1.1-2.5c-2.1,0.9-4.1,1.7-6.1,2.6C184.3,290.7,184.6,291.4,184.9,292.1 M26.6,329.4
	c1.9-0.3,3.7-0.5,5.6-0.8c-0.1-0.9-0.2-1.8-0.2-2.8c-1.9,0.1-3.7,0.2-5.6,0.3C26.4,327.3,26.5,328.3,26.6,329.4 M137.2,403.2
	c-0.7-2.1-1.3-4.1-2-6.2c-0.8,0.2-1.5,0.4-2.3,0.7c0.6,2.1,1.1,4.2,1.7,6.3C135.5,403.7,136.3,403.4,137.2,403.2 M69.3,247.7
	c1,1.7,1.9,3.2,2.8,4.9c0.8-0.5,1.6-0.9,2.4-1.3c-0.8-1.7-1.6-3.3-2.5-5.1C71.2,246.7,70.3,247.1,69.3,247.7 M187.3,344.9
	c2.1,0.7,4.1,1.4,6.1,2.2c0.3-0.9,0.5-1.8,0.8-2.7c-2.2-0.6-4.2-1.1-6.3-1.7C187.7,343.4,187.5,344,187.3,344.9 M134.1,239.4
	c-0.5,2-1,3.8-1.5,5.8c0.8,0.2,1.6,0.5,2.4,0.7c0.7-1.9,1.3-3.7,2-5.6C136.1,239.9,135.2,239.7,134.1,239.4 M31.9,318.1h-5.6v2.9
	h5.6V318.1z M32,290.3c1.8,0.8,3.6,1.5,5.4,2.3c0.3-0.8,0.7-1.6,1-2.4c-1.7-0.9-3.4-1.8-5.2-2.7C32.8,288.4,32.5,289.3,32,290.3
	 M190.6,322.3v2.3c2.2,0.1,4.3,0.2,6.6,0.3v-2.6H190.6z M140.7,395.1c0.8,2,1.6,4,2.4,6c0.9-0.3,1.6-0.7,2.4-1
	c-0.9-2-1.7-3.9-2.5-5.9C142.2,394.5,141.5,394.8,140.7,395.1 M180.5,372.3c-1.7-1.3-3.4-2.5-5.1-3.7c-0.5,0.7-1,1.3-1.5,2
	c1.6,1.3,3.3,2.5,4.9,3.9C179.4,373.8,179.9,373.1,180.5,372.3 M68.2,248.3c-0.9,0.5-1.7,1.1-2.6,1.6c1.1,1.7,2,3.2,3,4.8
	c0.8-0.5,1.6-1,2.4-1.5C70.1,251.6,69.1,250,68.2,248.3 M39,354c-1.7,0.8-3.4,1.6-5.1,2.5c0.4,0.9,0.9,1.8,1.3,2.6
	c1.8-0.9,3.4-1.8,5.1-2.6C39.8,355.7,39.5,354.9,39,354 M33.8,286.3c1.8,0.9,3.4,1.8,5.2,2.7c0.4-0.9,0.8-1.6,1.2-2.5
	c-1.7-0.9-3.4-1.8-5.1-2.7C34.6,284.6,34.2,285.4,33.8,286.3 M56.1,377.6c-1.4,1.5-2.7,2.9-4.2,4.4c0.7,0.6,1.3,1.3,2,1.9
	c1.4-1.6,2.7-3,4-4.6C57.3,378.8,56.7,378.2,56.1,377.6 M108.1,236.6c0.1,2,0.2,3.8,0.3,5.6h2.6v-5.6H108.1z M27.9,338.5
	c1.9-0.4,3.7-0.8,5.5-1.2c-0.2-1-0.4-1.8-0.5-2.7c-1.9,0.4-3.7,0.7-5.5,1C27.6,336.6,27.8,337.5,27.9,338.5 M47.7,368.3
	c-1.6,1.2-3.2,2.3-4.7,3.5c0.6,0.8,1.2,1.5,1.8,2.3c1.6-1.3,3-2.6,4.5-3.8C48.7,369.6,48.2,369,47.7,368.3 M43,361.5
	c-1.7,0.9-3.4,1.9-5,2.8c0.5,0.9,1,1.7,1.5,2.5c1.7-1.1,3.2-2.1,4.9-3.2C43.9,362.9,43.5,362.2,43,361.5 M112.3,406.8h2.2v-6.6h-2.2
	V406.8z M142.9,242.3c-0.9,1.9-1.7,3.7-2.5,5.5c0.9,0.4,1.6,0.7,2.5,1c0.8-1.9,1.6-3.7,2.4-5.6C144.4,242.9,143.7,242.6,142.9,242.3
	 M33.4,355.3c1.7-0.8,3.4-1.6,5.1-2.4c-0.4-0.8-0.7-1.6-1-2.4c-1.8,0.7-3.5,1.4-5.3,2.1C32.6,353.5,33,354.4,33.4,355.3 M91.7,244.7
	c0.9-0.2,1.7-0.4,2.6-0.6c-0.5-1.8-0.9-3.6-1.4-5.4c-0.9,0.2-1.8,0.4-2.8,0.7C90.6,241.1,91.1,242.9,91.7,244.7 M165.4,379.9
	c1.6,1.4,3.1,2.8,4.6,4.3c0.4-0.5,1-1.1,1.6-1.7c-1.5-1.4-3-2.8-4.5-4.2C166.5,378.8,166,379.3,165.4,379.9 M60.6,389.6
	c1.2-1.8,2.3-3.5,3.5-5.2l-1.8-1.3c-1.3,1.6-2.6,3.2-3.9,4.8C59.2,388.5,59.8,389,60.6,389.6 M49.1,272.4c-1.5-1.2-3-2.4-4.5-3.6
	c-0.6,0.7-1.1,1.4-1.6,2.1c1.5,1.2,3,2.4,4.5,3.6C48,273.8,48.5,273.1,49.1,272.4 M60.6,253.3c-0.8,0.6-1.5,1.2-2.3,1.8
	c1.3,1.5,2.5,2.8,3.7,4.3c0.7-0.5,1.2-1,1.9-1.4C62.8,256.4,61.7,254.9,60.6,253.3 M79.8,248.7c0.8-0.3,1.4-0.6,2.2-0.9
	c-0.7-1.8-1.4-3.4-2.1-5.2c-0.9,0.4-1.6,0.7-2.4,1C78.2,245.4,79,247,79.8,248.7 M29.4,344.3c0.3,0.9,0.5,1.6,0.8,2.5
	c1.9-0.6,3.6-1.2,5.4-1.7c-0.3-0.8-0.5-1.5-0.7-2.2C32.9,343.3,31.2,343.8,29.4,344.3 M114.6,236.6h-2.2v5.6h2.2V236.6z M31.8,322.4
	h-5.6v2.4c1.9-0.1,3.8-0.2,5.7-0.3C31.9,323.7,31.9,323.1,31.8,322.4 M28.7,300.6c-0.2,0.8-0.4,1.5-0.6,2.3c1.9,0.4,3.7,0.8,5.6,1.2
	c0.2-0.7,0.3-1.4,0.5-2.1C32.5,301.5,30.7,301.1,28.7,300.6"/>
<path class="st4" d="M116,320.9c100.1-15.5,94.8-11.6-0.2,0.4c95.6-5.7,101.5-2.8,0.3,0.4c101.2,3.2,95.3,6.1-0.3,0.4
	c95,12,100.3,15.9,0.2,0.4c98.9,21.7,92.6,23.5-0.3,0.3c91.2,29.3,95.7,34.1,0.1,0.4c93.3,39.5,86.7,40.1-0.4,0.3
	c84.3,45.5,87.8,51.1,0,0.5c84.4,56,77.9,55.3-0.4,0.2c74.5,60.2,76.9,66.3-0.1,0.5"/>
<path class="st4" d="M108.5,324.7c-76.9,65.9-74.5,59.7-0.1-0.5C30.1,379.4,23.6,380,108,324c-87.7,50.6-84.3,45.1,0-0.5
	c-87.1,39.8-93.7,39.3-0.4-0.3c-95.6,33.6-91.1,28.8,0.1-0.5c-92.9,23.2-99.3,21.4-0.3-0.3c-100.1,15.5-94.8,11.6,0.2-0.4
	c-95.6,5.7-101.5,2.8-0.3-0.4c-101.2-3.2-95.3-6.1,0.3-0.4c-95-12-100.3-15.9-0.2-0.4"/>
<path class="st4" d="M110.2,326.6c-54.9,78.5-60.8,81.3-0.5,0c-65.4,77.3-64,70.9-0.1-0.4c-68.4,67-74.8,68.7-0.4-0.1"/>
<path class="st4" d="M116.4,325.9c51,81.1,56.8,84.2,0.5,0c61.5,80.4,60.4,74,0.2-0.4c65.1,70.3,71.3,72.3,0.5-0.1"/>
<path class="st3" d="M111.7,384.1c-8.4,0-16.6-1.6-24.3-4.9c-7.4-3.1-14.1-7.6-19.8-13.4c-5.7-5.7-10.2-12.4-13.4-19.8
	c-3.3-7.7-4.9-15.9-4.9-24.3c0-8.4,1.6-16.6,4.9-24.3c3.1-7.4,7.6-14.1,13.4-19.8c5.7-5.7,12.4-10.2,19.8-13.4
	c7.7-3.3,15.9-4.9,24.3-4.9c8.4,0,16.6,1.7,24.3,4.9c7.4,3.1,14.1,7.6,19.8,13.4c5.7,5.7,10.2,12.4,13.4,19.8
	c3.3,7.7,4.9,15.9,4.9,24.3c0,8.4-1.6,16.6-4.9,24.3c-3.1,7.4-7.6,14.1-13.4,19.8c-5.7,5.7-12.4,10.2-19.8,13.4
	C128.3,382.5,120.1,384.1,111.7,384.1"/>
<path class="st4" d="M45.8,296.4c0.9,0.3,1.5,0.9,1.9,1.8c0.4,0.9,0.4,1.9,0.1,2.9c-0.2,0.6-0.6,1.3-1.2,2l-0.3,0.5l0.3,0.4l0.1,0.3
	l-0.2,0.1l-0.2-0.1l-1.7-0.7l-0.9-0.2l-0.3-0.1l-0.2-0.3l0.5-0.1c1.9,0.3,3.1-0.4,3.6-2c0.2-0.7,0.2-1.3,0-1.7
	c-0.2-0.5-0.7-0.8-1.3-1l-1.6,0.1c-0.5,0.2-1.1,0.7-1.8,1.5c-0.8,0.9-1.5,1.5-2.1,1.8c-0.6,0.3-1.2,0.3-1.9,0.1
	c-0.9-0.3-1.4-0.8-1.8-1.5c-0.4-0.8-0.4-1.6-0.1-2.5l0.8-1.5l0.3-0.5l0-0.3l-0.3-0.2l-0.1-0.2l0.2-0.1l0.2,0.1l0.9,0.3l1.2,0.3
	l0.2,0.1l0.1,0.2l-0.4,0.1c-0.6-0.1-1.2,0.1-1.8,0.4l-1.1,1.3l0.1,1.5l1.2,0.9c0.7,0.2,1.2,0.1,1.8-0.2c0.3-0.2,0.8-0.7,1.5-1.4
	c0.8-0.9,1.5-1.5,2.2-1.8C44.5,296.2,45.2,296.2,45.8,296.4"/>
<path class="st4" d="M54.9,284c0.4,0.2,0.4,0.7,0,1.4c-0.4,0.8-1.1,1.3-1.9,1.4l-1,0c-0.3-0.1-0.9-0.3-2-0.8
	c-0.6-0.3-1.2-0.3-1.6-0.1c-0.4,0.2-0.9,0.7-1.4,1.5l4.4,2.4l0.6-0.3l0.4-0.7l0.2-0.1l0,0.3l-0.1,0.2c0,0.1-0.3,0.5-0.7,1.3
	l-0.4,0.8l-0.4,0.7l-0.3,0.6l-0.3,0.3l0.1-0.5l0.3-0.9l-0.5-0.4l-7.8-4.2l-0.8-0.2l-0.6,0.7l-0.3,0.3l0-0.3l0.1-0.1l1.2-2l0.5-0.9
	l0.4-0.9c0.5-1,1.1-1.6,1.8-2c0.7-0.3,1.4-0.3,2,0c0.7,0.4,1,0.9,1.2,1.7c0.1,0.8-0.1,1.7-0.5,2.7l0,0.2l0.1-0.1
	c0.7-1,1.5-1.5,2.2-1.7c0.7-0.1,1.8,0.1,3.3,0.7c0.8,0.3,1.4,0.3,1.6-0.2l0-0.3h0l-0.3-0.1l-0.1-0.5L54.9,284z M46.1,283.4
	c-1.3-0.7-2.4-0.5-3.1,0.8l-0.2,0.8l0.3,0.4l3.6,2c0.5-1,0.8-1.8,0.7-2.4C47.3,284.3,46.9,283.8,46.1,283.4"/>
<path class="st4" d="M65.8,271.4l-0.1,0.4l-0.1,0.1l-0.6,0.7l-0.7,0.7l-0.8,0.9l-0.6,0.7l-0.1,0.1l-0.4,0.2l0.2-0.5l0.6-0.9
	l-0.7-0.8l-6.2-5.5l0.3,0.5c0.7,1.2,1.7,3,3,5.4l1.4,2.3l0.3,0.8l-0.5-0.1c-1-0.4-3.4-1.3-7.3-2.7l-1.7-0.6l0.6,0.5l3.9,3.5
	c1.5,1.3,2.2,1.9,2.2,1.9l0.7-0.5l0.5-0.3l-0.1,0.4l-0.3,0.3l-0.3,0.3l-1.3,1.6l-0.3,0.1l0.5-0.9l0.2-0.5l-0.6-0.6l-5.8-5.1
	c-0.7-0.6-1-0.9-1.1-0.9l-0.4,0l-0.8,0.7l-0.3,0.1l0.2-0.5l0.2-0.2l0.6-0.7l1-1.1c0.1,0,1,0.4,2.6,0.9c0.7,0.2,2.6,0.9,5.7,2
	c-0.4-0.6-0.7-1.2-1.1-1.9l-2.7-4.9l-0.4-0.7l1.7-2l0.5-0.5l0.2,0l-0.1,0.3l-0.4,0.5l-0.2,0.6c0,0.1,0.5,0.5,1.3,1.3l5.6,5l0.7,0.4
	l0.9-0.8l0.1-0.1L65.8,271.4z"/>
<path class="st4" d="M79.2,249.5l-0.2,0.3l-0.3,0.2l-0.2,0.1l-0.4,0.4l0.1,0.3l2.9,5.2c0.8,1.4,1,2.5,0.8,3.4
	c-0.2,0.9-0.9,1.7-2.2,2.4c-1.5,0.8-2.7,1-3.8,0.6c-0.7-0.3-1.3-1-2-2.2l-3.1-5.6l-0.5-0.1l-0.6,0.3l-0.3,0l0.1-0.3l0.3-0.2l0.3-0.2
	l0.4-0.3l2.2-1.2l0.2-0.1l0.3,0l0,0.2l-0.6,0.4l-0.3,0.2l-0.1,0.3l0.4,0.8l2.8,5c0.7,1.2,1.4,1.9,2,2.2c0.7,0.2,1.4,0.1,2.3-0.4
	c1.6-0.9,2-2.2,1.3-3.9c-0.1-0.3-0.7-1.3-1.7-3.1l-0.4-0.8l-0.6-1.1l-0.5-1l-0.2-0.3l-0.1-0.1l-0.5-0.2l-0.6,0.3l-0.4,0l0.1-0.2
	l0.2-0.1c0.1-0.1,0.6-0.3,1.3-0.7l0.4-0.2l0.3-0.2l0.2-0.1L79.2,249.5z"/>
<path class="st4" d="M95.8,244l-0.4,0.3l-0.4,0.1l-0.3,0.1l-0.3,0.2l0.1,0.5l2.5,8.8l0.3,1l-0.1,0.2L97,255l-3-2.3
	c-1.7-1.3-3.9-3-6.4-5l2.5,8.6l0.3,0.2l1.2-0.3l0.3,0.1l-0.4,0.3l-1,0.2L90,257l-0.3,0.1l-0.9,0.3l-0.2,0l-0.4,0l0.3-0.2
	c0.7-0.2,1-0.4,1.1-0.5l0-0.7l-2.2-7.6c-0.3-0.9-0.6-1.3-1-1.4l-1,0.1l-0.5,0l0.2-0.2l0.9-0.2l0.6-0.1l0.5-0.2L88,246l8.1,6.3
	l-2-6.8l-0.2-0.6l-0.2-0.1l-0.8,0.2l-0.6,0l0.4-0.3l0.6-0.2l0.5-0.1l0.3-0.1l0.3-0.1l0.5-0.1l0.5-0.1L95.8,244z"/>
<path class="st4" d="M107.8,253.4l-0.2,0.1l-0.2,0c-0.1,0-0.9,0-2.4,0.2l-0.9,0.1l-0.7,0.1l-0.2-0.1l0.4-0.2l0.8-0.2l0-0.9l-0.8-8.4
	l-0.2-0.9l-1-0.1l-0.3-0.1l0.2-0.1l2.4-0.2l1-0.1l0.7-0.1l0.3,0.1l-0.8,0.2l-0.5,0.2l0,0.7l0.8,8.5l0.2,1c0.1,0.1,0.5,0.1,1.1,0.1
	L107.8,253.4z"/>
<path class="st4" d="M124.3,243.2l-0.3,0.1l-1,0.1l-0.6,0.9l-0.7,1.4c-1.7,3.5-3,6.1-3.7,8l-0.2,0.2c-0.1,0-0.2-0.4-0.5-1.2
	c-0.4-1.5-0.7-2.6-0.9-3.4c-0.2-0.8-0.6-2.1-1.1-3.7l-0.7-2.2l-0.3-0.6l-0.7-0.2l-0.7-0.1l-0.1-0.1l0.4-0.1l0.2,0l1.1,0.1l1.1,0.1
	l0.7,0c0.4,0,1,0.1,1.7,0.1l0.2,0l0.3,0.2l-0.6,0.1l-1.1-0.1l-0.4,0.2l0,0.1l0.1,0.4c0,0.1,0.5,1.6,1.3,4.6c0.1,0.5,0.4,1.5,0.8,2.9
	c2.3-4.8,3.5-7.3,3.5-7.6l-0.8-0.4l-0.5,0l-0.2-0.2l0.5-0.1l0.6,0.1l0.7,0.1l0.6,0.1l1.2,0.1L124.3,243.2z"/>
<path class="st4" d="M136.8,255.4l-0.3,0.7l-0.4,1.3l-0.2,0.5c-1.1-0.4-3.2-1.1-6.5-2.1l-1.1-0.4l-0.8-0.2l-0.2,0l-0.3-0.2l0.1-0.1
	l0.6,0.2l0.6,0l0.3-0.7l2.7-8.6l0-0.6l-0.9-0.4l-0.2-0.2l0.4,0l2.9,0.9c0.1,0,0.7,0.2,1.9,0.6c1.2,0.4,2,0.6,2.4,0.7l0.9,0.2
	c-0.1,0.4-0.3,1.1-0.4,1.9l-0.1,0.7l0,0.2l-0.2,0.1l-0.1-0.5c0.1-1-0.1-1.7-0.5-2.1c-0.3-0.3-1.2-0.7-2.7-1.2l-1.4-0.4l-1.4,4.5
	l0.4,0.1c1.2,0.4,2,0.5,2.4,0.5c0.3-0.1,0.7-0.5,1-1.3l0.3-0.3l0.1,0.3l-0.3,0.8l-0.3,0.8c-0.3,1.1-0.6,1.8-0.7,2.3l-0.1,0.3
	l-0.2,0.1l-0.1-0.2l0.1-0.9c0.1-0.6-0.1-1.1-0.5-1.4c-0.2-0.1-0.7-0.3-1.5-0.6l-0.7-0.2l-1.6,5.1c2.5,0.8,3.9,1.2,4.4,1.2
	c0.8,0.1,1.4-0.4,1.9-1.5l0.3-0.3L136.8,255.4z"/>
<path class="st4" d="M149,264.1c-0.2,0.4-0.7,0.4-1.4,0c-0.8-0.4-1.2-1.1-1.4-2l0.1-1c0.1-0.3,0.3-0.9,0.8-2
	c0.3-0.6,0.3-1.2,0.1-1.6c-0.2-0.5-0.7-0.9-1.5-1.4l-2.5,4.4l0.3,0.6l0.7,0.4l0.1,0.2l-0.3,0l-0.2-0.1c-0.1-0.1-0.5-0.3-1.3-0.7
	l-0.8-0.4l-0.7-0.4l-0.6-0.3l-0.3-0.3l0.5,0.1l0.9,0.3l0.4-0.5l4.3-7.7l0.2-0.7l-0.7-0.6l-0.3-0.3h0.3l0.1,0.1l2,1.2l0.9,0.5
	l0.9,0.4c0.9,0.5,1.6,1.1,1.9,1.8c0.3,0.7,0.3,1.4-0.1,2c-0.4,0.7-1,1-1.8,1.1c-0.8,0.1-1.7-0.1-2.7-0.6l-0.2,0l0.1,0.1
	c1,0.8,1.5,1.5,1.6,2.3c0.1,0.7-0.1,1.8-0.8,3.3c-0.3,0.8-0.3,1.4,0.2,1.6l0.3,0v0l0.1-0.3l0.5-0.1L149,264.1z M149.8,255.4
	c0.7-1.3,0.5-2.3-0.8-3.1l-0.8-0.3l-0.4,0.3l-2,3.5c1,0.6,1.8,0.8,2.4,0.7C148.8,256.5,149.4,256.1,149.8,255.4"/>
<path class="st4" d="M160,269.6c-0.6,0.7-1.4,1-2.4,1c-1,0-1.9-0.4-2.7-1c-0.5-0.4-0.9-1-1.4-1.9l-0.3-0.5l-0.5,0.2l-0.3,0l0-0.3
	l0.1-0.1l1.3-1.3l0.6-0.7l0.2-0.2l0.3,0l-0.1,0.5c-1,1.7-0.9,3,0.4,4.1l1.6,0.7l1.5-0.8l0.6-1.5c0-0.6-0.2-1.3-0.7-2.2
	c-0.5-1.1-0.8-2-0.8-2.6c0-0.6,0.2-1.2,0.6-1.8c0.6-0.7,1.3-1,2.1-1.1c0.9,0,1.6,0.3,2.4,0.9c0.3,0.3,0.6,0.7,1,1.3l0.3,0.5l0.2,0.1
	l0.3-0.2h0.3l0,0.3l-0.1,0.1l-0.6,0.7l-0.7,1l-0.1,0.2l-0.2,0l0-0.5c0.3-0.6,0.4-1.2,0.3-1.8c-0.1-0.6-0.4-1.1-0.8-1.5l-1.4-0.5
	l-1.3,0.7c-0.4,0.5-0.6,1.1-0.5,1.7c0.1,0.4,0.3,1,0.8,1.9c0.5,1.1,0.8,2,0.8,2.7C160.6,268.5,160.4,269.1,160,269.6"/>
<path class="st4" d="M164.3,278.8l-0.2-0.1l-0.1-0.1c0-0.1-0.5-0.7-1.5-1.8l-0.6-0.6l-0.5-0.5l0-0.3l0.4,0.3l0.7,0.5l0.8-0.5
	l6.4-5.5l0.6-0.6l-0.5-0.9l-0.1-0.3l0.2,0.1l1.5,1.8l0.7,0.8l0.5,0.5l0.1,0.3l-0.6-0.5l-0.5-0.3l-0.6,0.4l-6.5,5.6l-0.7,0.7l0.6,1
	L164.3,278.8z"/>
<path class="st4" d="M179.1,286.5l-0.3-0.1l0.2-0.5l0.5-0.4l0.6-0.9l0-1.4l-0.4-0.8l-0.5-0.8l-8.3,5l-0.4,0.7l0.4,0.9l0,0.3
	l-0.3-0.2l-0.1-0.2l-0.7-1.3l-0.6-0.9l-0.7-1.1l-0.1-0.4l0.5,0.6l0.5,0.5l0.6-0.3l8.2-4.9c-0.6-1-1-1.6-1.2-1.8
	c-0.6-0.5-1.4-0.5-2.3-0.1l-0.5,0l0.2-0.3l0.3-0.2l0.3-0.2c0.4-0.2,1-0.5,1.7-0.9l0.4,0.7l1.8,3.1c0.2,0.4,0.5,0.9,1,1.7l1.5,2.5
	c-0.5,0.3-1.2,0.8-2.2,1.6L179.1,286.5L179.1,286.5z"/>
<path class="st4" d="M187.6,301l-0.2-0.2l-0.7-1c-0.2-0.1-1.2-0.3-3.1-0.5c-0.8-0.1-1.6-0.2-2.2-0.4l-0.9-0.1l-0.9,0.3l-2.9,1
	l-0.5,0.3l0.2,1l0,0.5l-0.2-0.2l-0.1-0.2l-0.7-2.3c-0.2-0.7-0.4-1.2-0.6-1.6l-0.1-0.2l0.1-0.3l0.3,0.3l0.5,1l0.8-0.1l3.2-1.1
	c0.2-0.2,0.7-0.7,1.5-1.6l2.4-2.7l0.8-0.9l-0.1-0.8l0-0.7l0.2,0.2l0.4,1.4l0.3,0.9l0.7,1.9l0.1,0.3l0,0.4l-0.3-0.5
	c-0.2-0.7-0.5-1-0.7-0.9c-0.2,0.1-0.8,0.7-1.7,1.8l-2.1,2.4c0.5,0.1,1.2,0.3,2,0.4l2.1,0.4c0.8,0.1,1.3,0.2,1.5,0.1l0.1-0.4
	l-0.2-0.8l0-0.4l0.2,0.3l0.3,1l0.2,0.5C187.6,300.4,187.7,301,187.6,301"/>
<path class="st5" d="M84.5,392l0.1,0.9l-0.3,1c-0.4,0.8-1,1.3-1.9,1.6c-0.9,0.2-1.8,0.1-2.8-0.4l-1.2-0.9l-0.9-1.1l-0.5,0.3
	l-0.5-0.3c0.7-1.2,1-1.8,1.7-3l0.5,0.3l-0.2,1.2l0.1,1.2l0.5,1l1,0.8l0.9,0.3l0.7,0l0.6-0.3l0.4-0.6l0.2-1.2l-0.6-1.2l-0.8-0.9
	l-0.7-0.9l-0.7-1.5l0.4-1.6l0.7-0.8l1-0.4l1.1-0.1l1,0.3l0.9,0.7l0.6,0.8l0.5-0.3l0.5,0.2c-0.5,1.2-0.8,1.8-1.3,3L85,390l0.2-1.1
	l0-1.1l-0.3-0.9l-0.8-0.7l-1.2-0.1l-0.9,0.7l-0.3,1.1l0.4,1l0.7,0.8l0.7,0.8l0.6,0.7L84.5,392z"/>
<path class="st5" d="M92.4,399.9c-1.9-0.5-2.8-0.8-4.6-1.5l0.2-0.5l0.6,0.2l0.5,0.1l0.4-0.1l0.3-0.4c0.9-2.8,1.4-4.1,2.3-6.9
	l0.1-0.4l-0.2-0.4l-0.4-0.3l-0.4-0.2l0.2-0.5c1.6,0.6,2.4,0.8,3.9,1.3l-0.1,0.5l-0.5-0.1l-0.5,0l-0.4,0.2l-0.2,0.4
	c-0.9,2.8-1.3,4.2-2.1,6.9l0,0.4l0.3,0.4l0.5,0.3l0.6,0.2L92.4,399.9z"/>
<path class="st5" d="M107.6,402.4c-1.2-0.1-1.8-0.1-3-0.2c-0.5-0.9-1-1.8-1.6-2.7c-0.6-0.9-1.2-1.8-1.7-2.7l-0.2,0
	c-0.2,1.4-0.3,2.1-0.5,3.4l0,0.4l0.3,0.3l0.4,0.2l0.5,0.2l-0.1,0.5c-1.8-0.2-2.6-0.4-4.4-0.7l0.1-0.5l0.5,0.1l0.5,0l0.4-0.2L99,400
	c0.5-2.8,0.8-4.3,1.3-7.1v-0.4l-0.2-0.3l-0.4-0.2l-0.4-0.2l0.1-0.5c1.5,0.3,2.2,0.4,3.7,0.6l-0.1,0.5h-0.5l-0.4,0l-0.3,0.2l-0.1,0.4
	c-0.2,1.4-0.3,2-0.5,3.4l0.1,0l1.4-0.9l1.2-1l0.9-0.9l0.3-0.7l-0.1-0.2l-0.3-0.1l-0.3-0.1l-0.2-0.1l0.1-0.5c1.3,0.2,2,0.2,3.4,0.3
	l0,0.5h-0.1l-0.2,0l-0.2,0l-0.2,0l-0.5,0.1l-0.4,0.3l-1.6,1.6l-1.7,1.4c0.6,0.9,1.1,1.6,1.5,2.3c0.4,0.6,0.9,1.3,1.3,2l0.6,0.7
	l0.5,0.4l0.5,0.2l0.5,0.1L107.6,402.4z"/>
<path class="st5" d="M121.9,401.5c-1.2,0.2-1.8,0.3-3,0.4c-0.7-0.8-1.4-1.5-2.1-2.3c-0.7-0.8-1.5-1.5-2.3-2.2l-0.2,0
	c0.1,1.4,0.1,2.1,0.2,3.5l0.1,0.4l0.4,0.3l0.5,0.1l0.5,0l0,0.5c-1.8,0.1-2.7,0.2-4.4,0.2l0-0.5l0.5-0.1l0.5-0.1l0.3-0.3l0.1-0.4
	c-0.1-2.9-0.1-4.3-0.2-7.2l-0.1-0.4l-0.3-0.3L112,393l-0.4-0.1l0-0.5c1.5,0,2.3-0.1,3.8-0.2l0,0.5l-0.4,0.1l-0.4,0.1l-0.3,0.3
	l-0.1,0.4c0.1,1.4,0.1,2.1,0.2,3.4l0.1,0l1.1-1.2l1-1.2l0.7-1.1l0.2-0.7l-0.1-0.2l-0.3-0.1l-0.3,0l-0.2,0l-0.1-0.5
	c1.4-0.1,2-0.2,3.4-0.4l0.1,0.5l-0.1,0l-0.1,0l-0.2,0.1l-0.2,0.1l-0.4,0.2l-0.4,0.4c-0.4,0.6-0.8,1.2-1.2,1.9
	c-0.4,0.6-0.9,1.2-1.4,1.7c0.8,0.8,1.4,1.4,1.9,1.9c0.5,0.5,1.1,1.1,1.7,1.7l0.7,0.5l0.6,0.3l0.5,0.1l0.5,0L121.9,401.5z"/>
<path class="st5" d="M130.4,399.6c-1.9,0.6-2.8,0.8-4.7,1.2l-0.1-0.5l0.6-0.2l0.5-0.2l0.3-0.3v-0.5c-0.7-2.8-1.1-4.2-1.8-7l-0.2-0.4
	l-0.4-0.2l-0.5,0l-0.5,0l-0.1-0.5c1.6-0.4,2.4-0.6,4-1l0.2,0.5l-0.5,0.2l-0.4,0.2l-0.2,0.4l0,0.4c0.8,2.8,1.1,4.2,1.9,7l0.2,0.4
	l0.4,0.2l0.5,0l0.6-0.1L130.4,399.6z"/>
<path class="st5" d="M147,392c-1.6,1-2.5,1.5-4.2,2.4l-0.2-0.4l0.6-0.4l0.4-0.4l0.2-0.4l-0.1-0.4c-1.4-2.5-2.2-3.8-3.6-6.3l-0.1,0
	c0.5,3.6,0.7,5.5,0.9,9.2l-0.3,0.2c-2.8-2.5-4.1-3.8-6.6-6.5l-0.1,0c0.9,2.2,1.4,3.3,2.3,5.5l0.6,1.2l0.6,0.5l0.7,0l0.7-0.1l0.2,0.5
	c-1.6,0.7-2.4,1.1-4,1.7l-0.2-0.5l0.6-0.4l0.5-0.4l0.1-0.7l-0.4-1.3c-0.8-1.9-1.2-2.8-1.9-4.7l-0.4-0.6l-0.4-0.3l-0.6-0.1l-0.6,0.1
	l-0.2-0.5c1.2-0.5,1.7-0.7,2.9-1.2c2.2,2.3,3.4,3.4,5.8,5.6c-0.2-2.7-0.4-4-0.8-6.7l-0.2-0.7l-0.2-0.5c1.1-0.6,1.6-0.9,2.6-1.6
	l0.3,0.4l-0.4,0.3l-0.3,0.3l-0.1,0.4l0.1,0.4c1.5,2.5,2.2,3.7,3.7,6.2l0.3,0.3l0.5,0.1l0.5-0.1l0.5-0.2L147,392z"/>
<path class="st6" d="M115.8,273.4c0.9,0,0.9-0.7,1.9-0.7v1.6h1l0.3-1.2c1.1,0,1.3,1,1.3,2.2c0.9-0.3,1.2-1.3,2.5-1.3
	c0,1.2-0.7,1.9-1.9,1.9c0.6,0.9,1.6-0.5,2.8-0.1c-1.1,2.3,1.6,2.1,1,3.8c1.5-0.1,1-2.2,2.8-1.9c0.2,1-0.3,1.1-0.3,1.9
	c0.7-0.2,1.5-0.5,2.5-0.3c-0.2,0.9-0.7,1.4-1.6,1.6c0.2,0.8,1,1.1,1.6,1.5c-0.4,1.3-1.6,0.5-2.2,0.9c-2.4,1.6-1.3,5.2,2.2,4.4
	c0.6-0.6,0.3-2.1,0.9-2.5c1.3,0.3,0.1,1.4,0.3,2.5c1.2-0.4,0.6-1.9,0.9-2.5c1.1,0.6,1.4-0.2,2.5-0.4c0.3,0.7,0.5,1.5,1,1.9
	c0.7-0.6,0.8-0.6,1.6,0c0,0.8-1.2,0.5-1.6,1c1.2,1.1-0.9,3.3,1.6,3.8c0.9-0.5,0.2-1.4,0.9-2.6c1-0.1,0.8,1.2,1.3,1.6
	c0.7-0.1,0.6-1.1,1.6-1c0.1,1.7,0.3,1.9,0,3.5c1.3,0.2-0.2-0.8,0.6-1.3c1,0.4,0.3,0.7,0.7,1.9h-1.3l0.6,1.6c-2,1.4,0.1,2.2-1.5,2.8
	c0.8,1.1,0.9-1.1,1.9-0.9c-0.2,1.2-1.3,1.6-1.9,2.5c-0.1,1.1,1.1,0.8,1,1.9c1.3,0.1,0.8-1.5,1.6-1.9c0.9,0.4,1,1.9,0.6,2.8
	c0.8,0.1,1-0.4,0.9-1.2c1.1,0.5,0.9-0.1,1.9-0.3c0.2,0.8,0.5,1.6,1.9,1.3c0.5,1.7-1.1,1.4-1.9,1.9c0.5,0.6,1.7,0.3,1.6,1.5
	c-0.6,0.3-1.2,0.5-1.9,0.6c0.5,0.3,0.8,0.9,0.7,1.8c0.4,0,1.9,0.5,1,1.6c0.7-0.5,1.3-1.2,2.2-1.6c0.7,0,0.1,1-0.3,1l0.9,0.6
	c0.6,0,0.2-1,1-1c-0.9-0.7-0.4-1.8-1.6-1.6c1.3-1.3,0.4-1.2,0-2.8h1.9l0-1.6c0.8-0.9,2.1,0.4,2.2,1.2c0.9-0.5,0.2-1,1.6-1.3
	l-1.3-0.6c0.1-1,1.7-0.6,1.9-1.6c-0.2-1.4-2.2-1-1.6-3.1c1.1,0.3,1.9,1.1,2.3,2.2c1.1-0.2-0.1-1.2,0.3-2.6c1.3,0.2,1.2,1.8,1.6,2.8
	l0.6-0.9l0.9-0.1c0.8,0.9-0.3,1.6,0,2.9c1.4,0.5,0.7-1.2,1.9-0.9c0.2,1-0.8,0.6-0.6,1.6l0.6-0.3c1.1,0.5-0.6,0.8-0.3,1.6
	c1.5,1.2,2.2-1.1,4.1-0.7c-0.8,1.5,0.8,2,1.9,2.5c-0.9,1.3,0.6,1.4,1.5,2.2c0.3,1.2-1.6,0.6-1.9,0.3l0.6,1.3c0,0.7-1.3,0.2-1.9,0.3
	c0.1,1.1,0.8,0.8,0.3,1.9l0.9-0.3c0.9,0.7-0.2,2.3-0.9,2.5l0.9,0.6c-0.9,1.7-2.9,2.7-3.7,3.4c0.4,0.8,2-0.7,2.5,0
	c-1.4,1.3-2.6,1-4.4,1.6c-0.1,1.2,0.3,1.8,1.3,1.8c-1.5,1,0.4,2-1.3,2.2c0.8,1.1,1.9-0.5,3.8,0.3c-0.1,1-1.7,1.6-2.5,1
	c0,1,0.9,1,0.6,2.2c-0.7-0.2-0.9-1.1-1.6-1.2c0.1,0.8,0.2,1.7,0.7,2.1c-0.7,1.2-2.1-1.4-2.5,0.4c-0.6-0.1-0.1-1.4-0.9-1.3
	c-0.7,0.8,1.2,2.1,0.3,3.2c0.5-0.4,0.6-1.2,1.2-1.6c1.3,0.3-0.2,1.6-0.6,2.2c0.2,1,0.9,1.4,1.3,2.2c-0.5,0.9-0.9,0.3-1.9,0.3v-1.9
	c-0.1-0.9-1.3,1.1-1.5,0l-1,1.6c-1.1-0.2-0.5-1.5,0-1.9c-0.4-0.2-2.4,0.8-1.6,1.9c-2-0.6,0.4,2.5-2.8,2.2c0,0.8,0.5,0.6,0,1.2
	c-1.6-0.4-1.9,0.6-2.2,1.6c-0.7-0.5-1.5-0.8-1-1.9c-0.8,0.1-0.8,1-1.5,1.3c-0.8-0.6-0.2-2.5,0.2-2.8c0.2-0.9-0.6-0.7-0.6-1.2
	c-0.6-0.1-0.1,1.1-0.3,1.5c-0.9,0.1-0.7-1-0.9-1.5c-1.3-0.1-0.6,1.5-2.2,1c0,0.5-0.6,0.7-0.9,1.6c-0.8,0.1-0.7-0.6-1.6-0.3
	c1.1,1,3.9,0.2,4.1,2.1c-1.6,0.5-2.4-0.9-3.1-0.3c0.9,0.8-0.3,0.5,0.6,1.9c-1.2-0.1-1.9-0.6-2.9-0.9l0.7,1.6
	c-0.7,0.9-1.8-0.2-2.2-0.6c-0.6,0.7-1,1.5-1.6,2.2c-0.3-0.2-0.3-1-0.3-2.2c0.9,0,0.9-0.9,1.3-1.3c-0.4-0.9-0.6,1-1.6,0.7
	c0.3-0.8,0.8-1.2,0.9-2.2c-1.1,0.1-1,1.5-1.2,2.6c-0.5-1.4-1.9-0.2-2.5-1.6c-1.1,0.3-0.5,2.2-1.9,2.2c0.2-1-0.3-1.2-0.3-1.9
	c-0.4,0.7-0.6,1.5-1,2.2c-1-1.2-0.2-2.2-1.9-2.8c1.3,0.1,1.5-0.7,2.5-1c0-0.7-1.2-0.2-1.6-0.3c-0.1-1.4,1.9-0.6,2.5-1.3
	c-2.3-1.8-5.4,0.8-6.9,1.9c0.5,0.9,1.2-0.4,2.2,0c0.2,1.1-0.9,1-1.9,0.9c0.2,0.9,1.8,0.5,2.2,1.3c-0.3,0.8-1.6,0-1.9-0.3
	c-0.7,0.6-0.7,1.8-0.9,2.9c-2.2-0.6,0.5-2.4-0.4-3.5c-3.2-0.7-6.6,4.4-5.4,6.6c0.7,0,0.4-0.9,1.3-0.7c-0.1,1.4,0.9,0.1,1.3,1.9
	c-2.1,0.1-2.4,2-4.4,2.2c-1.2,4.5-2.5,11.7,3.3,14.8l0.3,1.3c-0.9-0.3-1.2-1.3-2.5-1.2c2,1.6,3.3,1.9,6.6,2.2l-1.2,0.6
	c0.2,0.9,0.9-0.5,1.8,0l-0.6,0.3c0.9,0.6,1.5,0,2.5,0c0,0.6-1,0.2-0.9,1c1.3-0.3,2-0.3,3.1,0.3l-1.2,0.3c4.1,0.6,3.2,2.8,7.5,2.8
	c-0.9,0.3-0.2,1.1,0.3,0.3c0.5,0.8,2.8-0.2,3.2,0.6c-1.3,0-2.5,0-3.8,0c2.7,0.7,6.6,0.2,9.4,0.9c1.4,0,2.7,0,4.1-0.1
	c-0.6,0.8-2.4,0.2-3.4,0.4c-6.1,0.3-11.5-0.1-15.4-2.1c1.4,1.5,4.4,1.4,6,2.8c0.7-0.7,6.6-0.1,9.8-0.1c0.4,0,5.4-0.1,2.8,0.3
	c-4.4,0.6-11.8,0-17.3-0.2c-1-0.5,1.3-0.3,1.9-0.3c-1.1-1-4.8-0.8-6,0.1c1,1.9,5.4,0.2,7.2,1.2c-2.6,0.8-6.6,0.1-9.4,0.1
	c-0.8-0.3,0.8-1.3-0.6-1.2l0.4,0.9c-5.2,0.2-11.1-0.9-17.3-0.1c4-1.3,9.4-1,13.8-0.4c-3.2-1.3-11.9-1.5-15.4,0.4
	c-1.7-0.5-3.3-0.3-5-0.3c-0.2-0.9,1.7,0.2,1.5-0.6c1.7,0.7,4.2-0.1,5.7-0.4c-1.6-0.4-4.9,0.4-7.2-0.6c1.1,1.3-5,0.4-6.9,0.7
	c1.3,0.8,4.3-0.2,5.6,0.6c-6.3,0.7-14,0.1-19.8,1.4c5.9-2.1,12.7-1.9,16-5.2c0.1-0.7,1.6-0.2,1.9,0c-1.3,0.6-2.5,1.2-3.7,1.9
	c1,0.3,2.7-1.5,4.4-1.6c-0.5-0.2-0.5-1-1.3-0.9c3.1,0.5,5.4-2.5,7.5-2.3v-1.3c-7.4,3.3-13.7,7.2-24.7,6.8c1.9,1.1,4.7-0.7,6.6,0.3
	c-3.5,1-7.5,0.7-11.3,0.7c0.2-0.4,3.3-1.1,4.4-0.7c-0.8-1.2-3.9-0.1-5.3,0.1c-1.1,0.2-1.8-0.5-0.3-0.3c2.3-0.7,3.8-0.4,6.3-1
	c-1.7-1-3.9,0.3-5.9,0.1c4.2-0.7,8.9-1.7,13.1-1.4c1.1-0.6,2-1.1,3.8-1c0.4-0.8,4.3-1.5,6-1.6c-0.3-0.6-0.2-1.7-1.6-1.2
	c-0.1,0.7,1.4-0.3,1,0.9c-5.1-0.2-7.6,2.1-12.9,1.7c4,0.9-5.5,1.3-7.5,1.3c0.7-0.9,2.1-1.4,2.5-0.7l0.3-0.9c0.4,0,1,1.3,0.9,0
	l0.6,0.9c0.5-1.3,1.6-1.1,3.1-1l-0.7-0.6c0.1-0.7,1,0.4,1.3,0.6l0.3-0.9c2,0.4,2.4-0.6,5.7-0.6c-0.7-0.5-5.1-0.3-1.6-0.7
	c1.2-0.2,3.1-0.4,4.4-1.3c3.6,0.3,6.6,2,8.2,0.6c1.2-1.2,2.7-2.5,3.7-4.2c-0.4-3.8,3.5-12.9,0.1-22.9c-0.9-0.8-1.7-0.9-3.4-1
	c-4.8-0.4-9.8,4.5-14.1,3.6c-0.6,0.7-1,1.5-1.3,2.5c-1.7-1.7-2.7,1.9-3.1,3.5c-1-0.1-1.1-1-1-2.2c-0.9,0.1-0.5,1.4-1.6,1.3v-0.9
	c-0.9-0.2-0.6,0.7-0.9,1l-0.6-1.3c-1,0.1-0.5,1.4-1.6,1.3c0.6-2.8-1.7-2.5-2.6-3.8l-0.7,1.6c-0.7-0.9-1.6-0.4-2.1,0.3
	c-0.8-0.3,0.1-2.4-0.7-2.8c-1.8,1.1-2.9,1.9-4.7,1.7c1.3,0.5-0.1,1.3-0.3,2.2c-0.6-0.3-0.7-1-0.7-1.9c-1.3-0.2-1.2,1.1-2.5,1
	c0-2,2.5-2.9,1.8-4.4l-0.6,1c-0.8-0.1-0.2-1.4,0-1.5c0.1-0.7-1.2-0.2-1.6-0.3c0.3,1,0.9,1.4,0.3,2.5c-0.7-0.6-1.7-0.8-1.6-2.2
	c-1,0.1-0.6,1.6-1.9,1.5c-0.2-1-0.3-1.4-1.3-0.9c0.7-0.8,0.6-1.9,0.3-3.1h-1.6c0.4-1.8-1.2-1.4-1.3-2.8H58c0.2-1.2-0.9-2,0-2.8
	c0.7,0.1,1.1,0.8,1.5,1.3c1.2,0.4,0.6-0.9,1.6-0.7c-0.4-1.2,0.2-1.3-0.4-2.2c-1.1-0.1-0.5,1.5-1.8,1.3c-0.5-1.5-0.1-2-2.2-1.5l1.5-1
	l-1.3-0.3c0.3-0.4,0.8-0.7,1.6-0.6c-0.5-1-1.1-0.1-2.5-0.3c-0.1-0.6-0.7-0.8-0.6-1.6c1.2,1.1,1.3-0.2,1.2-1.9
	c-1.8,0.4-1.1,3.3-2.8,3.8c-0.2-1.8-0.5-3.5-2.5-3.4c0.2-0.5,0.5-1.1,1.5-1c0.9-0.2,0.7,0.6,1,1c0.7-0.5,1.7-0.9,1.9-1.9
	c-1.9,0.7-3,0.7-4.1-0.9c1.3,0.4,1-0.7,1.9-0.7c0-1-1-2.1-0.3-2.8c0.7,0.7,1.5,1.2,2.3,1.9c0-0.6,0.3-1.5,0.6-2.5
	c0.8,0.2,0.8,1.2,1,2.2c1.5,0.1,1.4-0.9,2.8-1.3c0.5,1.4,1.7-0.8,2.8,0.6l-1-2.2c0.7-1.4,2.6,0.6,2.2,1.6l1-0.3
	c-0.6-0.6-1-2.5-0.4-3.4l1,0.6c0.2,0.7-0.6,0.4-0.6,0.9c0.1,0.6,0.7,0.8,0.6,1.6c1.1-1,1.1-3.1,2.2-4.1c1,0.2,0.4,2.2,1.3,2.5
	c1.1,0.1,0.7-1.1,1.8-1c0.3,1-1,0.4-0.9,1.2l0.3,1c0.6-0.3,0.9-1,0.9-1.9c1.8,0.8,0.6-0.5,1.6-1.2c0-0.8-1.3-0.2-1.9-0.3
	c-0.3-0.9,0.6-0.7,0.6-1.3c1-0.3,0.4,1,1.2,0.9l0.3-0.9l-0.9,0l0.6-0.6c-0.6-0.9-2.3-0.9-2.2-2.5c1.7,0,3-0.2,3.8-0.4
	c0.1-1.6-1.7-1.5-1.3-3.4c0.8,0,1.6,0,1.6,0.9l-1.3-0.3c0.4,0.7,0.9,1.2,1.6,1.6c-0.7-1.3,0.7-1,0.3-2.6c0.6,0.7,1.3,0,1.5-0.6
	l0.6,1.6c2.1,0.3,2.8,0.6,4.1,0c-0.7-0.7-1.4-1.1-1.6-2.2c1.1-0.1,1.7,0.3,2.5,0.6c-0.5-0.8-1.4-1.1-0.9-2.8
	c-1.3,0.3-0.9,2.5-3.2,1.9c-0.2-1.6,1.4-1.3,1.8-2.2c-1.3,0.2-2.6,0.4-4.4,0.3c-0.3-1.7,1.6-1.4,1.6-2.8c-1.4-0.2-0.7,1.7-2.2,1.3
	c0-0.8,0-1.6,0-2.5c-0.7,0.6-0.9,1.7-2.2,1.9c-0.6-0.5,0.5-1.4-0.6-1.6c0.5-1.2,2.2-1.2,2.8-2.2c-0.3-0.8-2.2,0.1-2.5-0.6
	c0-0.9,0.5-1.3,1.5-1.2c-0.2-0.8-1.2-0.7-0.9-1.9c1.3-0.6,2.9,0.5,3.4-1c1.5-0.2,0.9,1.7,0.7,2.5c0,0.7,1.1,0.2,1.5,0.3v-3.2
	c0.8,1.1,1.9,2.1,3.8,1.2c0.2,1-0.6,0.9,0,1.5c0.4-0.5,0.8-1.1,1.5-1.3c1.1-0.1,1.1,1.7,2.2,0.6c-0.9-0.4-1.6-0.9-2.5-1.2
	c0.3-0.5,0.5-1.1,1.5-0.9c-0.5-2.2,0.3-0.5,0.3-2.8c1.8-0.2,1.3,3.4,3.1,2.2c-0.6-0.9-1.2-3.1,0.7-3.2c-0.2,1.8,1.1,0.7,1.6,0.9
	c-0.5-0.3-0.7,1.6,1.6,0.6c0.2-0.5-1.2-0.8-0.3-1c-0.8-0.5-1.4-1-2.5-1.2l1.3-0.7c-1.1-1.1-1.6,0.8-2.5,0.1c0.8-1.1,2.4-1.4,3.4-2.2
	c-0.3,0.9,0.4,0.8,0.3,1.5c0.5-0.6,1.7-0.8,1.6,0.6c0.9-0.3-0.1-1.3,0-1.9c-0.4,0.3-0.9,0.4-1.6,0.3c0.5-1.1,0.9-1.9,0.9-2.8
	c-1.3-0.2-0.8,1.3-1.9,1.2c0-1.4,0.8-2,1.2-2.8c-1-0.2-1.1,0.5-2.2,0.3c0.1-1.6,1.4-1.7,2.2-1.9c-0.4-0.9-0.4-2,0-2.8
	c1.9,0.5,1.8,2.9,3.5,3.7c0.7-0.1,0-1.7,0.6-1.9c-0.1-0.7-1.5-0.2-1.2-1.3c1.5,0.1,2.2-1.7,3.7-0.6c0.9-0.3-0.2-1,0-1.6
	c0.8,0,1.5,0.2,1.9,0.6c0.8-0.3,0.8-1.6,1.6-1.9c1,0.8,1.6,1.8,1.6,3.5c0.8,0.1,1.2-0.1,1.6-0.4l-0.6-0.9c1.1-0.3,2.9-0.3,4.1-0.1
	c0.3,1.1-0.3,1.4-0.6,2c0.3,0.6,1.9,0.5,0.9,1.5c1.2-0.9,2.1,0.5,3.2,0.6l0.3-1l-1.9-0.3c-0.7-0.1,0.3-1.1,0.9-0.9
	c-0.1-1.4-1.7-2.1-1-3.5c1,0.3,1.7,0.9,1.9,1.9c1.8-0.1,0.7-3,2.8-2.8C115.4,272.1,116.6,272.6,115.8,273.4 M114.9,274
	c-0.2-1.1,0.7-1.2,0.6-2.2C114.1,271.6,114.2,273.8,114.9,274 M132.1,335.7c1.2,0.3,1.3-1.5,0.3-1.6
	C132.1,334.5,132,335,132.1,335.7 M107,275.3c0.7,0.6,1.6-0.4,1.6-1.6C107.5,273.7,107.5,274.7,107,275.3 M102.4,274.8
	c0.5-0.6,0.4-2.2-0.4-2.5C102.1,273.2,101.1,274.5,102.4,274.8 M99.5,275.1l1.2,0.3c0.1-1.2-0.3-1.9-1.3-1.9
	C99.7,274.5,99.7,274.1,99.5,275.1 M116.2,275.6l0.6-0.3c0.1-0.7,0.1-1.5-0.6-1.5C116.5,274.5,115.2,275.2,116.2,275.6 M114,276.9
	c-0.4-1.4,1-1,0.9-2.2l-1.2-0.3C113.5,275.1,112.8,276.7,114,276.9 M98.9,275.8c-0.2-1-2.4-1.4-2.5,0
	C97.6,275.9,98.5,276.2,98.9,275.8 M93.2,276.7c0-0.8-0.1-1.3-0.6-1.6C92.1,275.6,92.3,276.8,93.2,276.7 M118.7,277.5
	c1.5-0.1,0.8-1.4,1.2-1.9C118.9,275.6,118.5,276.3,118.7,277.5 M102.7,278.3c1.1,0.8,2-0.8,2.5-1.6c-0.7,0.5-1.2-0.8-1.2,0
	C104.8,277.2,102.6,277.4,102.7,278.3 M96.4,277.3L97,278c0-0.6,0.8-0.4,0.6-1.3C96.9,276.6,96.5,276.8,96.4,277.3 M108.7,278.8
	c0-1.2-0.2-2.2-1.3-2.2C107.2,277.9,107.7,278.5,108.7,278.8 M105.2,278.5c-0.2,1.4,2,1,2.2,0.3
	C106.6,278.3,106.1,278.1,105.2,278.5 M120.3,278.4c0.4,1.1,0,1.2,0.3,2.2c0.7,0.1,0.7-0.6,1.6-0.4c0.3-1.1-1-0.6-1.3-1.2
	c0.8,0.1,0.8-0.7,1-1.3C121.1,277.7,120.9,278.3,120.3,278.4 M97.4,280.1c0.9,0,1.3-0.5,1.2-1.6l-0.9,0
	C97.5,279.3,96.8,279.6,97.4,280.1 M100.5,280.4l0.9,0.3c-0.1-0.7,0.6-0.7,0.3-1.6l-1-0.3C100.9,279.6,100.2,279.5,100.5,280.4
	 M117.2,280.3c0.5-0.1,1.2-1.7,0-1.6C116.9,278.9,116.4,280.2,117.2,280.3 M94.8,280.8c0.1-1-1.2-2.1-1.9-1.2
	C93.6,280,93.4,281.3,94.8,280.8 M113.4,280.6c1.3,0.2,1-1.3,0.3-1.6C113.4,279.5,113.3,279.9,113.4,280.6 M108,281.4
	c0.1-0.9,0.1-1.7-1-1.6C106.8,280.9,107.4,281.1,108,281.4 M102.7,282c0.1-0.6,0.7-0.8,0.6-1.6l-0.9-0.3
	C102.6,280.7,102,282,102.7,282 M112.8,282.2c0.3-0.8,0.2-1.8-0.7-2.2C112.2,280.9,111.9,282.2,112.8,282.2 M119.7,284
	c-0.5-1-0.5-0.7-0.3-2.2c-1.3,0-1.1,1.4-1.9,1.9l-0.3-0.6c0.4-0.8,1.3-1.2,1.6-2.2l-1.3,0c-0.5,0.8-0.1,2.3-1.5,2.3
	c0.4-0.5,0.7-2.6-0.4-2.6c-0.1,1.2-0.9,3.2-0.3,4.1c0.1-0.2,1-1,1-0.3l-0.6,1.6h1c0.5-0.7-0.1-2,0.2-2.2c0.5,1.1,0.7,0.5,1.6,1
	C118.5,283.5,118.9,283.9,119.7,284 M117.5,286c1.3,0.2,1.7-0.6,2.2-1.3C118.5,284.1,118.1,285.2,117.5,286 M122.8,283.1
	c0.6-0.3,0.4-2.1-0.3-1.9C122.8,282,121.4,283.1,122.8,283.1 M124.4,283.1c1,0.4,1.6-1.2,0.9-1.6C125.3,282.3,124,281.8,124.4,283.1
	 M113.4,285.3c-0.3-0.5-1.2-2.1-1.9-1.2c0.6,0.3,0.7,1,0.7,1.9c-0.6,0-2.7,0.5-1.6,1.9h0.6c0.3-1.9,2.2-2,3.4-2.9
	c-0.4-1.4,0.6-2.7-1-3.1c-0.1,1.4,0.3,2.3,0.7,3.1C113.6,284.4,114,285.1,113.4,285.3 M105.9,283.2c0.6,0.1,0.2,1.3,1.2,1v-1
	C106.5,283.5,106,282.3,105.9,283.2 M108.4,283.5c-0.1-0.4-0.5-0.6-0.4-1.3h-0.9C107,283.8,108.2,283.5,108.4,283.5 M97.1,284.6
	c0.1-0.7,1.1-0.6,0.9-1.6h-1.2C96.9,283.4,96.4,284.6,97.1,284.6 M121,286.2c0.1-1.5-0.3-2.3-1-2.8
	C119.8,284.9,120.3,285.7,121,286.2 M110.9,284.1c-0.6,0-1.3,0-1.9,0C108.7,285.5,111.2,285.5,110.9,284.1 M122.8,286.2
	c0.9,0,0.6-0.5,1.3,0c0-0.5,0.8-1.8,0-2.2C124.2,285.2,122.8,285,122.8,286.2 M106.5,285.1c-0.1,1.3,2.2,0.5,2.2,0
	C108.1,284.5,107.2,284.9,106.5,285.1 M95.6,287.1c0.7,0.1,1.1-0.1,1.2-0.6c-0.5,0-1.1-1.6-1.6-0.7
	C95.7,286.1,95.1,286.3,95.6,287.1 M98.7,287.4c-0.4,0.5-0.5,2.1,0.6,1.8c0-1.8,0.3-0.1,1,0C101.1,288.2,99.2,287.9,98.7,287.4
	 M101.2,287.7c-0.2-0.7,0.4-2.1-0.3-2.2c-0.4,1.6-0.5,1-1.9,0.6c-0.2,0.9,0.5,0.9,0.4,1.6C100.4,287,99.9,287.3,101.2,287.7
	 M107.2,287.6c1.4,0,2-0.8,2.5-1.6C108,285.7,107.5,286.6,107.2,287.6 M116,286.6c-1.4-0.8-3.3-0.6-3.5,1.3c0.8,0.6,1.7-0.7,2.2-1.3
	c0.1,0.7,0.7,1.3,0,1.9c0.6,0,2-0.7,1.3-1C114.9,288.3,115.9,287.3,116,286.6 M94,288.6c-0.1-0.9,1.6-0.3,1.6-1.2
	c-0.4-0.1-0.6-0.5-1.3-0.4C94.3,287.5,93.1,288.4,94,288.6 M95.9,289c0.8,0.1,1.8-1.1,0.9-1.6C96.7,288.2,95.7,288,95.9,289
	 M102.8,289.5c1.3,1.2,2.4-1.7,1-2.2C103.6,288.3,103,288.8,102.8,289.5 M101.8,287.3c-0.4,0.7-0.9,1.4-0.9,2.5
	c1.1-0.3,1.1,0,1.9-0.7C102.4,288.7,102.9,287.2,101.8,287.3 M123.5,289.3c0.4-0.5,0.5-1.6-0.3-1.6c-0.2,0.7-0.8,1.1-1.3,1.6
	c0-0.8-0.1-1.6-0.9-1.6c-0.2,1.2,0.3,1.8,0.4,2.8c-1.1-0.5-2.9-1-3.1,0.7c1.3,0.3,1.2-0.7,2.2-0.7c0.3,1-1.6,1.6-0.6,2.2
	c1.4-0.7,4.1-3.3,3.7-0.3c0-0.6-0.3-0.8-1-0.7c-0.1,0.8,0.6,0.7,0.4,1.6c0.9-1.4,1.7,0.6,2.8-0.3c-0.9-0.4-2.4-1.8-1.6-2.8
	c0,0.8,0.5,1.1,0.9,1.6c-0.6-2.3,2.3-1.1,2.8-2.3c-1.2-1.3-2.6,1-3.4,0l1.5-1.6c-1.3,0.3,0.3-0.6-0.6-0.6
	C124.6,288,125,289,123.5,289.3 M109.4,290.7c-0.2-1,0.3-1.1,0.3-1.9c-0.4,0.1-1.2-1-1.2-0.3C109,288.9,108.2,290.4,109.4,290.7
	 M116.9,288.8h2.8C119.2,288,117.3,287.8,116.9,288.8 M132.6,289.6c-1.5-0.3-1.8,0.5-2.5,1c-0.3-0.9-1.2-0.4-0.6-1.6
	c-1.1-0.2-1.2,0-1.9-0.9C127.9,291.3,131.3,291,132.6,289.6 M130.1,289.3c0.6,0.6,1.6,0,1.3-1.3C130.5,288,130.1,288.5,130.1,289.3
	 M90.9,290.9c0.4-1,0.3-1.9-0.7-2.2C89.8,289.6,89.9,290.5,90.9,290.9 M111.9,290.4c0.1-0.9,1.3-0.6,1.6-1.3
	c-0.9,0.3-0.9-0.4-1.6-0.3C112.1,289.4,111,290.1,111.9,290.4 M94.3,290.8l1.9,0.7c0.5-1.1,2.1-0.9,2.2-2.3
	C96.7,290.1,95.9,290.3,94.3,290.8 M104.7,291.1c0.2-0.7,1.3-0.5,0.9-1.9h-0.9C104.8,289.7,103.8,290.7,104.7,291.1 M99.3,290.8
	c-0.8-0.5-2.3,0.3-2.2,1.6c1.6-0.1,1.2-2.3,2.5-1c0.1-0.9,0.3-1.5,0.9-1.9h-1.3C99,290.1,100.3,290.6,99.3,290.8 M107.2,291
	c1,0.2,1.3-1.5,0.3-1.6C107.3,290.1,106.6,290.5,107.2,291 M88,291.2c0-0.7-1.4-1.7-1.9-0.9C86.9,290.5,86.8,291.5,88,291.2
	 M101.9,291.4c-0.8-0.3,0.6-1.4-1-1.3c-0.5,1.6,0.9,2.3,0.4,2.8c0.8-0.3,1.8-2.2,1.2-2.8L101.9,291.4z M91.8,292.4
	c1.2,0.2,2-1.8,0.9-1.9C92.6,291.4,91.5,291.2,91.8,292.4 M79.9,293.5c0.1-1.1-0.2-2-0.9-2.1C78.8,292.4,78.9,293.5,79.9,293.5
	 M126.7,292.1c0.4-0.5,1.5-0.4,1.5-1.2H126C126.1,291.5,126.3,291.9,126.7,292.1 M75.2,293.2c0.1-1-0.3-1.4-1.3-1.2
	C73.9,292.8,74.4,293.2,75.2,293.2 M102.8,293.3l1.2-0.7c-0.6-0.1-0.2-1.2-1.3-0.9L102.8,293.3z M107.5,292c0.1,0.7,0.3,1.4,1,1.6
	c-0.3-1,0.5-0.9,0.3-1.9L107.5,292z M99,294c0.2-0.8,1-0.9,1.3-1.6C99.5,291.4,98,293.3,99,294 M104.4,293.3c-0.4,0.5-0.1,2.1,1,2.2
	C105.4,294.3,105.2,293.5,104.4,293.3 M105.9,294.5c-0.1-0.6-0.1-1.2-0.1-1.9c-0.4,0-1.6-1.3-1.5,0h0.6
	C104.9,293.7,105.5,294,105.9,294.5 M82.7,294.5c1.2,0.3,1.6-1.9,0.6-1.9C83.1,293.1,82.5,293.3,82.7,294.5 M88.1,294
	c0-0.8,1.3-0.3,0.9-1.6l-1,0.1C87.9,292.7,87.3,294,88.1,294 M93.4,294.7c0.3-0.5,1.9-2,0.3-2.2C93.9,293.2,92.9,294,93.4,294.7
	 M95.3,294.7c0.7,0,1.2-0.1,1.3-0.7l-0.9-0.3l0.3-0.9C94.5,292.2,95,294.3,95.3,294.7 M127.3,293.7v-1.3l-1.3,0.4
	C126.9,292.7,126.3,294,127.3,293.7 M100.3,296.1c-0.2-1.2,0.7-1.2,0.6-2.2c-1.5,0.2,0.4-0.9-0.6-1
	C99.7,293.7,99.2,295.6,100.3,296.1 M91.5,295c1.1,0.2,1.4-0.5,1.2-1.6h-0.9C92,294.2,91.3,294.1,91.5,295 M120.7,294.7
	c1-0.1,1.5-0.6,1.6-1.6h-0.9L120.7,294.7z M87.1,294.1c-0.1-0.7-1.4-0.1-1.9-0.3C85.1,295.1,87.1,295.5,87.1,294.1 M100.9,295.5
	c0.6,0.7,1.4,0,1.6-0.6l-0.6-0.3l0.6-1C101.4,293.7,101.3,294.7,100.9,295.5 M114.5,295.4c0.2-0.2,1.4-1.9,0-1.9
	C114.5,294.1,113.5,295.1,114.5,295.4 M131.7,296.2c-0.1-0.7-0.3-1.4-1-1.5c-0.2,1.8,1.2,1.9,0.1,3.1c2,0.5,2.7-1.1,3.8,0.2
	c-0.3-1.1,0.9-2.1-0.1-2.8l-1.2,1.6c-0.8-0.6-1.3-3.6-1.6-3.1C131.8,294.3,132.5,295.8,131.7,296.2 M133.3,295.9
	c0.9,0.3,1.3-1.5,0.9-1.6C134,294.8,133,294.7,133.3,295.9 M135.2,295.2l0.9,0.3l0.6-2.2C135.5,293.3,135.7,294.6,135.2,295.2
	 M80.5,296c0.6-0.7,0.1-1.7-0.6-1.9L80.5,296z M128.9,293.7c-0.2,1.2,0.6,1.2,1.2,1.5c-0.4-0.7,0.8-1.2-0.1-1.3
	C129.9,294.9,129.7,293.3,128.9,293.7 M137.4,295.5l0.9,0.3c-0.1-0.8,1.4-1.5,0.6-1.9C138.5,294.5,137.6,294.7,137.4,295.5
	 M88.1,296.9c0.6-0.5,0.9-1.8,0-2.2C87.7,295.3,86.9,296.6,88.1,296.9 M95,295.9c-0.1,0.5-0.5,0.6-0.3,1.3c1,0.1,0.9-0.8,1.2-1.3
	c-1.3,0.3-0.6-1.5-1.9-1.2c-0.8,0.9-1.5,2.8,0.1,3.4c0.1-1.2,0.5-1.5-0.3-2.2C94.5,296.3,94.9,295.1,95,295.9 M96.9,296.2
	c1,0,1.1-0.7,1.5-1.3l-0.9-0.3L96.9,296.2z M75.8,296c0.8,0,1.5-0.2,1.9-0.6C76.8,295,76.1,295.2,75.8,296 M103.8,296.4l0.3-1.3
	l-0.9-0.3C103.1,295.6,103.1,296.4,103.8,296.4 M118.8,296c0.1-0.8-0.1-1.3-0.9-1.2C117.8,295.6,118,296.1,118.8,296 M109.8,297.3
	c-0.2-0.8,0.7-0.6,0.7-1.3c-0.7,0.1-0.7-0.4-1-0.6C109.3,296.1,108.7,297.1,109.8,297.3 M77.1,296.7c0.1,0.6,0.1,1.3,0.9,1.3
	c-0.4-0.8,0.9-1.5,0-1.9L77.1,296.7z M79.6,298.2c-0.3-1,0.9-0.6,0.6-1.6l-0.6-0.6C78.9,296.7,78.3,297.6,79.6,298.2 M89,297.5
	c1,0.1,1.2-1.6,0.3-1.6C89.5,296.7,88.8,296.6,89,297.5 M139.3,297.4c-0.1-1,1-0.7,0.6-1.9C138.7,295.3,138.1,297.1,139.3,297.4
	 M115.7,297.6c0.9,0.1,0.9-0.8,1.2-1.3L116,296C115.8,296.4,115.6,296.8,115.7,297.6 M128.9,296.2c-0.3,1.1,1,0.5,1.6,0.7
	C130.7,295.8,129.4,295.7,128.9,296.2 M135.5,297.4c1.1,0,1.2-0.9,1.6-1.6C135.9,295.8,134.9,296.7,135.5,297.4 M85.6,298.5
	c0.2-1-0.3-1.2-0.3-1.9l-1.3,0C84.1,297.6,85,297.9,85.6,298.5 M99.1,298.4c0.4-0.5,1.1-0.8,0.9-1.9l-0.9,0
	C98.8,296.7,98.4,298.2,99.1,298.4 M106,297.7c-0.1-0.6-0.1-1.4-0.9-1.2C104.5,296.9,105.1,297.7,106,297.7 M80.9,299.8
	c0.1-0.4,1.5-2.1,0-2.2C80.6,297.9,80.2,299.6,80.9,299.8 M126.7,298.7c0.9-0.2,1.5-0.6,1.9-1.2
	C127.6,296.9,126.6,297.3,126.7,298.7 M130.5,300.3c0.7-0.2,2.1,0.4,2.2-0.3C132.3,299.5,130.5,299.4,130.5,300.3 M131.1,298.1
	c-0.8,0.2-1.2-0.2-1-1c-1.3,0.8-2.4,1.7-1.8,3.2c0.5-0.4,0.3-1.5,1.6-1.3l-0.4,0.9C130.6,299.9,131.2,299.3,131.1,298.1
	 M103.8,299.2l-0.3-1.3h-0.3l-0.4-0.3C102.5,298.6,102.7,299.1,103.8,299.2 M124.2,301l-0.6-0.9l1.2-0.4l0.3,1.3
	c0.2-0.7,1-0.8,1.3-1.6c-1.5,0.5-1.3,0-1.3-1.6c-1.4,0.5-0.9,2.2-2.4,1c-0.1,1.1-0.1,1.5,0.3,2.8C123.3,300.7,124.2,301.5,124.2,301
	 M134.9,299.3c1.2-1.3,1.4,0,2.8-0.7c-0.8-0.1-0.9-1-1.9-1C135.6,298.3,134.5,298.1,134.9,299.3 M83.7,299.1l-1-0.3
	c0.2,1.1,0.4,2,1.3,2.2c-0.1-0.7,0.4-2.3-0.3-2.5V299.1z M134.3,300.3c0.1-0.9-0.1-1.6-0.7-1.9C133.2,298.9,133.1,300.6,134.3,300.3
	 M93.8,300.9c1,0.5,1.4-2.1,0.3-1.9C94.1,299.8,93.5,300,93.8,300.9 M92.5,301.6c1.6,0.1,0.8-2.1,0-2.2
	C92,300.3,92.3,300.9,92.5,301.6 M98.8,300.6c0.9,1.4-0.5,1.5-1.2,2.2c2.4-0.6,1.7,2,4.1,1.5c-0.2,0.9,0.5,0.9,0.3,1.6
	c1.3,0,2,0.8,2.8,1.2c-2.3-2.6-2.7-5.6-5.1-7.8C99.8,300.1,99.6,300.7,98.8,300.6 M97.2,301.9c1,0.1,1-0.7,0.9-1.6h-0.9V301.9z
	 M104.1,304c-0.9-0.6-2.3-3.7-2.2-3.1C102.3,302.1,103.4,304.2,104.1,304 M107.3,307.7c0.4-1-1.2-1.6-0.3-2.2
	c0.7,1.2,0.6,3.4,1.6,2.8c-0.8-3-2.5-5.1-4.4-6.9c-0.3,1,1.7,1.3,1,1.9c-1.2-0.6-1.6-2-2.5-2.8C103.7,303.3,105.8,305.2,107.3,307.7
	 M121.4,302.9c0.9-0.8,0.3-1.5,0.6-2.5C120.9,300.6,120.7,302.2,121.4,302.9 M88.4,302.8c1.1,0,1.6-0.4,1.6-1.6
	C88.9,301.3,88.8,302.2,88.4,302.8 M138.1,302.4c1,0.1,1.2-1.5,0.3-1.6C138.1,301.2,138,301.6,138.1,302.4 M111.4,305.5
	c1.6-0.3,1.5-3,0.6-4.1C111.5,302.5,111.6,304.2,111.4,305.5 M123.6,302.8c0.5-0.6,1.8-0.2,1.9-1.3
	C124.8,300.7,122.9,302.4,123.6,302.8 M111.1,303.9c0.3-1.2-0.6-2.8-1.3-1.9C110.4,302.4,110.2,303.8,111.1,303.9 M89.7,304.4
	c1.1,0.1,1.7-2,0.6-2.2C90.1,302.9,89.7,303.5,89.7,304.4 M118.5,302.3c-0.1,1.2,2.1,0.4,1.9-0.4
	C119.5,301.7,119.3,302.3,118.5,302.3 M155.6,302.9h0.9c-0.1-0.6,0.3-1.6-0.7-1.2L155.6,302.9z M85,302.9c-0.3,1.2,1.5,0.4,2.2,0.6
	C87.3,302.1,85.7,302.6,85,302.9 M113.3,303.9l1.2,0.3c0.1-0.9,0-1.7-0.9-1.6C113.5,303.1,113.1,303.3,113.3,303.9 M95.1,305
	c1.8,0.4,1.2-1.6,0.2-1.9C95.4,303.9,94.8,304,95.1,305 M142.7,304.6c0.2-0.5,1.3-1.5,0.4-1.9C142.8,303.3,141.4,304.1,142.7,304.6
	 M87.6,306c0.4-0.6,2.2-2.3,0.3-2.5C87.7,304.1,86.8,305.6,87.6,306 M115.4,303.5c-0.2,1,0.6,1,0,1.6l0.9,0.3l-0.3-2.2L115.4,303.5z
	 M122.4,305.1c-0.3-0.7-0.1-2-1.2-1.8C121,304.4,121.8,304.6,122.4,305.1 M124.9,304.7c-0.2-0.9-0.7-1.4-1.6-1.5
	C123.3,304.2,124.4,304.1,124.9,304.7 M128.4,305c-0.2-0.5,0.4-1.8-0.3-1.9C127.6,303.5,127.5,305,128.4,305 M84.7,305.1
	c0.7,0.5,1.8-0.5,2.5-1C86.1,304.2,84.4,303.7,84.7,305.1 M139,304.9c0.1-0.7,1.7,0,1.5-1C139.8,302.9,138.3,304.6,139,304.9
	 M156.6,305.1c0.9,0,1.4-0.5,1.3-1.6C157,303.6,156.5,304,156.6,305.1 M96.6,305.6c0.8,0.1,1-0.4,0.9-1.2
	C96.7,304.2,96.5,304.8,96.6,305.6 M109.8,304.5c-0.1,0.8,0.2,1.3,0.7,1.6c0.1-0.6,0.7-0.9,0.6-1.9L109.8,304.5z M112.4,305.8
	l0.9,0.6c0.5-0.6,1.1-2.1-0.3-2.2c-0.3,1,0.3,1.1,0.3,1.9C112.8,306.2,112.5,304.9,112.4,305.8 M82.8,307.3c0.5-0.5,1.1-0.8,1.2-1.6
	l-1-0.3C83.1,305.9,82.1,307.1,82.8,307.3 M142.2,305.5c0.2,0.7,0.3,1.4,1,1.6c0.1-0.5-0.4-1.6,0.3-1.6c0.1,0.4,1,1.5,1.3,0.6
	l-0.7-1.2C143.1,304.7,143.4,305.9,142.2,305.5 M151.6,306.7c0.2-0.2,0.8-2.2-0.3-1.9C151.4,305.8,150.5,306.4,151.6,306.7
	 M93.5,307.8c-0.1-0.9,0.3-2.2-0.6-2.2C92.4,306.1,92.2,308.1,93.5,307.8 M91.6,307.9c-0.1-0.6,1-2-0.3-1.9
	C90.9,306.4,90.8,307.9,91.6,307.9 M114.9,308l1-0.7c0-0.9-0.8-1.1-1.3-1.5C114.7,306.4,114.2,307.8,114.9,308 M156.9,308.5
	c0.3-0.4,1.7-1.5,0.3-2.5c-0.7,0.2,0.2,1.9-0.9,1.6c0-1,0-1.9-0.9-1.9C154.5,307.2,155.9,308,156.9,308.5 M76.9,308.3
	c1,0.4,1.6-1.2,0.9-1.6C77.5,307.3,76.5,307.1,76.9,308.3 M83.7,307l0.3,1.2c0.9,0.1,0.9-0.8,0.9-1.6L83.7,307z M110.2,308.9
	c0.2-1.2-0.6-1.3-1-1.9c-0.1,1.4,0.8,2.1,0.4,3.4c1.3-0.3,0.6,1.5,1.9,1.3c0.2-0.5,1.2-1.7,0.3-2.2c0,0.8-0.7,0.8-0.9,1.3
	c-0.4-1.2,1.4-1.7,0.6-2.2c-0.1,0.3-0.8,1.4-0.9,0.6c0.8-0.3,1.3-2.4,0.9-2.8C110.2,307.1,111.1,308.5,110.2,308.9 M116.5,307.6
	l0.9,0.6c0.5-0.5,0.5-2.1-0.6-1.8L116.5,307.6z M155.4,308.8c-0.1-1.2-0.5-2-1.6-2.2C153.5,308.1,154.5,309.5,155.4,308.8
	 M158.2,307.3l0.3,0.6c0.8-0.3,2.1-0.2,2.5-1C160,306.8,158.8,306.2,158.2,307.3 M77.8,309.2c1.1,0.3,1.9-1.2,1.2-1.6
	C78.8,308.3,77.7,308.1,77.8,309.2 M134,308.4c0.8,0.1,0.8-0.7,0.9-1.3l-0.9,0.1V308.4z M139.7,308.7c1.2,0.5,2.1-1,1.2-1.6
	C140.6,307.8,139.6,307.6,139.7,308.7 M121.5,308.5c-0.4-0.3-1.7-1.2-2.2-0.3C119.8,308.3,120.8,309.6,121.5,308.5 M152.2,309.2
	c1-0.2,1,0.6,1.6-0.1c-0.1-0.9-1.1-1-1.6-1.5V309.2z M161.4,309.8c-0.1-1,1.1-2-0.1-2.2C160.7,308,160.5,309.3,161.4,309.8
	 M80,315.2c1,0.2,0.6-0.9,1.6-0.6l0.6,0.9l-0.9,1c-0.2-0.5,0.3-1.6-0.4-1.6c-0.2,0.5-0.4,1-1.3,1c0.2-1.5-0.5-2-0.9-2.8
	c-0.2,1.3-0.2,0.6-1.3,0c-0.3,1.4,0.7,2.8,1.3,1.5c-0.1,0.8-0.4,1.3-0.6,1.9c0.9,0.3,1.5-0.8,1.9,0.9c1.6-0.2,1.8,0.7,2.8,0
	c-0.7-0.8-0.6-2.2,0-3.1c0.3,0.5,0.8,0.7,1.6,0.6c-0.3-1.6-1.9-1.6-0.3-2.8c-0.9,0-1.6,0.9-2.2,0.3c-0.4,0.7,0.8,1.2,0,1.2l-0.7-0.6
	c0.5-1,1.8-1.4,2.5-2.2c-1.1,0.4-0.5-1-0.7-1.6h-0.6c-0.7,1,0,0.6,0.4,1c0,1-0.9,1.1-1.6,1.3l-0.4-0.9l1,0c0-0.9-0.3-1.6-1-1.9
	c0.3,1.5-1.3,2.8,0.1,3.5c-1,0.4,0.1,0.8-0.6,1.2c-0.6-0.6,0-2.3-1.3-2.2l-0.3,1.2h-0.4C79.3,313.8,80.9,313.4,80,315.2
	 M115.8,311.1c1-0.2,2.1-1.3,0.9-1.9l-0.6,0.9c-0.3-1,0.3-1.2,0.3-1.9h-1.2C114.7,309.9,116.6,310.2,115.8,311.1 M118.3,312.3
	c0.3-1.5,1.4-0.7,2.2-0.3c0-1.3-0.2-1.8,0.9-1.3c-0.5-1.4-2.7-1-3.2-2.5l-0.6,0.3c-0.1,1.5,1.7,1,2.2,1.9l-0.9,0.7
	c-0.2-0.9-0.6-0.2-1-1.3c-0.3,0.7-1.1,1-0.9,2.2c1,0.3,0.4-1.1,1.2-0.9C118.7,311.7,117.4,312.1,118.3,312.3 M128.7,310.1
	c-0.1-0.6,1-2,0.3-1.3c-1,1.7-1.9,5.2-2.1,6.6l0.6-1c-0.1,2.6-1.1,4,0.3,1c0.8-1.6,2.1-3.9,1.9-6.3c0.5,0,0.7-1.6,0.3-0.6
	L128.7,310.1z M84.4,310.8l1.2-0.3c-0.2-0.5,0.3-1.6-0.3-1.6C85.1,309.5,84.4,309.8,84.4,310.8 M95.1,310.7c0.2-1.5-0.7-1.9-1.9-1.9
	C93.5,309.8,94.1,310.4,95.1,310.7 M74.4,311.2c0-1.2,1.6-0.7,1.6-1.9C74.6,308.8,73.5,310.3,74.4,311.2 M107,310.8
	c0.1-0.5,1.6-1.2,0.6-1.9l-0.3,0.6l-0.7-0.6C106.5,309.8,106.4,310.2,107,310.8 M158.2,309.5l0,0.6c0.9-0.1,1.5-0.5,1.8-1.3
	C159.2,308.5,158.6,308.6,158.2,309.5 M155.7,310.8c0.5-0.1,0.6-0.4,1.3-0.3c0.2-1.1-0.7-1-1-1.6c-0.6,0.6,0,0.8,0,1.6L155.7,310.8z
	 M87.9,311.7c0.9,0.3,2-1.9,0.6-1.9C88.3,310.4,87.7,310.7,87.9,311.7 M93,311.9c0.2-1.1,0.6-1.9-1-2.2
	C92.1,310.7,92.2,311.6,93,311.9 M138.1,311.2c0.3-0.2,0.9-2.2-0.3-1.9C138,309.9,137.4,311.2,138.1,311.2 M77.5,312.4
	c0-1.2,0.2-2.5-1.3-2.2C76.6,311,76.4,312.3,77.5,312.4 M103.6,312.5c-0.9,0.1-0.3-1.3-1.3-0.9c0.2,0.8-0.1,1.1-0.9,0.9
	c0.7-0.5,0.2-3.5-0.7-2.2c0.7,1.1-1.8,1.1-0.3,2.5l-1.6,0c0.2,0.8-0.1,1.1-0.9,1c0.2,0.4-0.3,1.6,0.3,1.5c0.3-2.1,3.2-1.5,5.4-2.5
	l0.3,0.6c0.2-0.7-0.4-2.1-0.7-1.3L103.6,312.5z M102,311.2c1.3-0.2,1.8,0.6,2.2-0.3l0.3,1.3h0.3l0.3,0.6c-0.1-1.5,0.4-0.3,0.9-0.9
	l0-1.9h-0.7c-0.8-0.1,0.3,1.6-0.6,1.6C104.8,309.6,102.4,309.8,102,311.2 M113.3,312.4c0-0.6,1-2.6-0.3-2.5
	C112.7,310.7,112.5,311.9,113.3,312.4 M153.2,312c0.3-1.2,0.9-1.3,0.9-2.2C153.1,309.8,151.8,311.6,153.2,312 M163.9,310.4
	c0.8-0.3,1.4,1.2,1.9,0.3c-0.6-0.1-0.6-0.9-1.3-1L163.9,310.4z M84.8,311.4l0.7,1l0.9-0.6C85.7,311.4,85.4,310.7,84.8,311.4
	 M124.3,315.7c-0.5-0.5-0.1-1.9-1-2.1c0.9,2.6,1.3,7,1,9.1c0.5-0.2-0.1-1.6,0.9-1.3c-0.4,1.2-0.2,5.3,0,1.9c0.8-1.3,0-2.9,0.6-3.8
	c0.8-0.2-0.2,1.5,0.6,1.2c0.1-0.7,0.7-2.7,0.3-2.8l-0.6,0.9c0.7-2.4-0.3-4.8-1.6-5c-0.3-1.1,0.4-1.2,0.3-2.3
	c-0.9,0.4-1.2-1.4-1.6-0.5C123.6,312.5,124.8,314.6,124.3,315.7 M140,311.8c0.7-0.1,1.1-0.6,1.2-1.3
	C140.2,310.4,139.4,311.2,140,311.8 M98.3,313.4c0.4-0.4,0.6-2.2-0.4-2.2C97.5,311.7,97.4,313.5,98.3,313.4 M114.9,313.6
	c0.7-0.5,0.5-1.7,0-2.5C114.4,311.8,113.9,313.1,114.9,313.6 M105.5,313.4c0.9,0.2,0.8-0.5,1.5-0.3c-0.2-0.5,0.4-1.7-0.3-1.6
	C106.6,312.3,105.4,312.3,105.5,313.4 M122.5,312.9c0-1-0.4-1.5-1.3-1.5C121,312.6,121.9,312.6,122.5,312.9 M157.3,313.2
	c0.2-0.4,1.4-2.2,0-2.2C157,311.6,156.1,313,157.3,313.2 M111.5,313l1.2,0.3c0.1-0.8-0.2-1.3-0.6-1.6
	C112.1,312.4,111.2,312.1,111.5,313 M138.5,313.1l1,0c-0.1-0.5,0.3-1.6-0.7-1.3C138.6,312.3,138.3,312.5,138.5,313.1 M119.6,314.5
	c0.4-0.5,1.3-2.2-0.3-2.1C119.5,313,118.9,314.4,119.6,314.5 M137.5,313.7c0.3-1-1-2.2-1.5-1.2C136.4,313,136.8,313.6,137.5,313.7
	 M117.4,314.6c0.1-0.9,1.8-0.3,1.3-1.9C117.3,312.1,117.1,314.4,117.4,314.6 M143.2,314.3l0.6-0.3c-0.2-0.5,0.4-1.6-0.3-1.6
	C143.2,312.7,142.3,313.9,143.2,314.3 M97.4,315.3c0-1.2-0.4-1.9-1.3-2.2C96.1,314.3,96.3,315.3,97.4,315.3 M103.6,315.9
	c1.5-0.1,1.4-2.2,0.6-2.9C104.2,314.2,103.9,315.1,103.6,315.9 M67.8,315.3c-0.1-0.6,0.4-1.9-0.6-1.5
	C66.7,314.2,66.8,315.5,67.8,315.3 M122.5,314.5c0-0.9-0.8-1.1-1.6-1.2C120.4,314.7,122.1,313.9,122.5,314.5 M110.2,315.2
	c0.7-0.1,1.1-0.6,1.2-1.3l-0.9-0.3C110.3,314,110.1,314.5,110.2,315.2 M72.5,315.9l0,1.5c1.3-0.3,0.4-2.1,2.1-1.2
	c-0.1-0.6,0.6-2.2-0.6-1.9C73.8,315.7,73.4,315.2,72.5,315.9 M132.8,315c1,0.1,1.5-0.4,1.5-1.3C133.2,313.5,133.2,314.4,132.8,315
	 M163.3,315.1c0.8-0.1,1.1-0.8,1.3-1.6C163.7,313.6,162.7,314.4,163.3,315.1 M96.4,315.3c-0.6-0.3-0.5-1.2-1.6-0.9
	C94.7,315.2,95.9,316.2,96.4,315.3 M139.4,315.6l0.3-1.3l-1-0.2C138.7,314.8,139,315.3,139.4,315.6 M152,317l0.9-0.3l0.3,0.7
	c0.4-1.8,0.1-3-1.6-3.4c0.1,1.7-0.4,0.2-1.3,0.3c0,1.2,0.4,1,0,1.9C151.5,315.5,151.4,316.4,152,317 M75.1,316.8
	c0.9-0.1,1.3-0.6,1.2-1.6h-0.9C75.1,315.6,75,316.1,75.1,316.8 M85.1,317c0.3-0.6-0.9-1,0-1.3c0.3,0.7,1.9,1.9,2.2,0.6
	c-0.7-0.6-1.6-0.9-2.5-1.2C84.6,315.9,84.1,316.9,85.1,317 M96.1,316.6c-0.4-0.8-2.3-1.6-2.9-1.2C93.8,316.2,94.5,316.9,96.1,316.6
	 M106.8,316.5c1,0.1,0.9-0.8,1.2-1.3l-0.9-0.3C107.2,315.7,106.5,315.6,106.8,316.5 M120.6,316.4c0.1-0.9,1.4-0.7,1.5-1.6h-1.6
	C120.4,315,119.9,316.3,120.6,316.4 M83.9,318c-0.1-1,0.3-2.4-0.7-2.5C82.5,316.4,83.3,317.5,83.9,318 M99.9,317.5
	c0.3-0.3,1.2-1.8,0.3-2.2h-0.6C99.7,316,99.2,317.4,99.9,317.5 M150.1,316.8c0.2-1.1-0.3-1.6-1-1.9
	C149.2,315.8,149.1,316.9,150.1,316.8 M162.1,316.4c0.5-0.5,0.4-1.8-0.7-1.6C161.4,315.5,161.4,316.3,162.1,316.4 M66.9,317.8
	c1.2,0.5,2.4-1.8,0.9-1.9C67.4,316.4,67.2,317.1,66.9,317.8 M75.7,319.3c1.5,0.1,1.1-2.9,2.5-1.9l-0.6-1.6c0.3,1.2-0.6,1.2-1.2,1.6
	c-0.2-0.5,1.2-0.8,0.3-0.9C76,317.5,75.2,317.8,75.7,319.3 M109.3,316.5l0.7,0.9c0.3-0.6,1.7-1.4,0.3-1.9
	C110.3,316.2,109.3,315.9,109.3,316.5 M97.4,317.8c0.5-0.5,1.7-1.2,0.9-1.9h-0.9C97.7,316.9,96.8,317.8,97.4,317.8 M106.5,317.4
	c0-0.9,0-1.7-1-1.5C105.4,316.9,105.5,317.6,106.5,317.4 M144.5,317.8c0-1,0.3-2.5-0.9-2.2C143.5,316.7,143.7,317.4,144.5,317.8
	 M93.3,317.9c-0.9-0.1,0.4-0.5-0.1-1.3c-1,0-2.2,1.5-0.9,1.9l0.6-0.6H93.3z M145.8,317.1c-0.6,1.2,0-1.2-0.6-0.9
	c0,1.3-0.4,2.3-1.2,3.4l-0.3,0.3C145.1,320,146.5,318.2,145.8,317.1 M145.4,319.6c1.2,0.1,1.8-0.3,1.9-1.3
	C146,318.1,145.8,318.9,145.4,319.6 M160.8,317.3l-0.3-1.2c-0.8,0.4-1-0.2-1.2,0.3C160.1,316.4,159.6,317.7,160.8,317.3 M94.6,318.5
	c0.1-0.7,1.1-0.6,0.9-1.6C94.3,316.5,93.7,318.1,94.6,318.5 M138.2,316.6c-0.8,0.5,0,2.5-1.5,2.2c0.1-0.7,0.7-0.9,0.6-1.9l-0.9-0.3
	l-0.3,1.2c0.1-1-0.8-0.9-1.3-1.2c0.4,1.9,0.6,1.6-0.3,3.1c1.2,0.4,0.7-0.9,1.6-0.9c0.2,0.5-0.3,1.8,0.3,1.9c0.7-1.6,1,0.5,1.6,0.9
	c0.1-0.4,0.5-0.6,0.3-1.3c-0.7,0.1-1.1,0-1.2-0.6C137.3,318.8,139.3,317.9,138.2,316.6 M141.7,319l-0.3-0.3c0.4-0.6,0.6-1.5,0.9-2.2
	C140.5,316.4,140.6,319.6,141.7,319 M78.2,319.9c1.4,0,0.9-2,0.3-2.5C78.6,318.4,78,318.7,78.2,319.9 M147.3,317.1
	c0,1,2.1,1.4,2.2,0.3C148.7,316.9,148.3,316.7,147.3,317.1 M63.8,321.3c1.7-0.2,1.6-2.2,2.1-3.4C65.3,319,64,319.6,63.8,321.3
	 M96.4,319.5c0.3-0.4,0.4-0.9,0.3-1.6l-0.9-0.3c-0.9,0.5,0.5,1.3-0.3,1.6h-0.3C95.6,319.2,95.8,319.6,96.4,319.5 M143.6,318.4
	c-0.9,0.2,0.2-1.5-0.7-1.3c-0.3,0.7-1,1-0.9,1.9l0.9,1.3C143.5,319.2,142,318.4,143.6,318.4 M61.9,320.1c1.4,0,1.7-1.1,2.2-1.9
	C62.8,318.2,62.3,319.1,61.9,320.1 M80.4,319.9c0.3-0.2,0.9-2.2-0.3-1.9L80.4,319.9z M82.6,319.2c0.2-0.8-1.1-1.7-1.5-0.9
	C81.6,318.7,81.8,320.1,82.6,319.2 M106.2,319.7l0.9-0.9c-0.1,0.7,0.1,1.2,0.6,1.2c0.2-1.2,0.9-0.6,1.6-0.9l0-0.9
	C108.1,319.1,105.3,316.6,106.2,319.7 M131,319.5c0.4-0.5,0.7-1.2,0.9-1.9C130.7,317.1,130.3,319,131,319.5 M97.4,318.5l0.4,1.2
	c1.2,0.3,1.2-1.5,0.3-1.6L97.4,318.5z M137.9,319.4c1.5,0.3,1.7-0.8,2.2-1.5C138.6,317.6,138.7,318.9,137.9,319.4 M149.8,318.7
	c0.7,0,1.5-0.1,2.2-0.1C152.2,317.1,149.8,317.7,149.8,318.7 M57.8,321c1.1,0.1,2-2,0.9-2.2C58.4,319.6,57.6,319.8,57.8,321
	 M67.2,320.3c0.3-0.7,1.4-0.5,1.3-1.6C67.7,318.7,66.3,319.6,67.2,320.3 M101.2,320.3c-0.1-0.7,0.5-1,0.6-1.6l-1-0.3L101.2,320.3z
	 M55,321c0-0.9,0-1.9-1-1.8C54,320.1,53.8,321.2,55,321 M93,320.1l1.6-0.6c-0.6-0.1-0.6-0.9-1.6-0.6V320.1z M112.8,319.9
	c-0.1-0.8-0.5-1.2-1.3-1.2C111.4,319.7,111.8,320.1,112.8,319.9 M69.8,322.8c1,0.3,1-0.5,1.5-0.7c-0.2-1.2-0.1-2.8-1.6-2.8
	C70.3,321.6,70.6,320.7,69.8,322.8 M83.6,319.6c0.1,0.9,0.8,1.1,1.3,1.5c0.3-1,0-0.7,0-1.8L83.6,319.6z M117.8,320.2h1
	c0-0.8,0.6-1-0.4-1.3C118.4,319.6,117.5,319.3,117.8,320.2 M128.2,320.7c-0.2-0.6,0.5-2.2-0.6-1.9
	C127.7,319.5,127.1,321,128.2,320.7 M77.9,323.3c0.2-0.8,1-0.9,1-1.9c-1.2,0.1-0.6-1.7-1.6-1.8l-0.3,0.3l-0.3,0.3
	C78.1,320.9,77.4,322,77.9,323.3 M149.2,319.9c-0.3,0.6-0.6,1.2-0.7,1.9c1.4,0,1.5-2,2.5-0.6c0.5-0.5,0.6-2.2-0.3-2.2h-0.6
	C150.4,320.1,149.9,320.6,149.2,319.9 M109.3,321.5c0.7-0.2,0.4-2-0.4-1.9C108.8,319.9,108.2,321.8,109.3,321.5 M129.4,319.5
	C127.3,321.3,130.5,321.8,129.4,319.5 M81.7,322.4c0.5-0.6,0.4-2.3-0.7-2.2C80.4,320.9,81.2,321.9,81.7,322.4 M130.7,320.7l0,1.3
	c1.2-0.4,0.8-0.7,2.2-0.4c0.1-0.9-0.1-1.6-0.6-1.9C132.6,321.5,131,320,130.7,320.7 M65.7,321.9c0.8,0,1.2-0.5,1.3-1.3
	C65.9,320.5,65.5,320.9,65.7,321.9 M73.5,322.4c0.1-0.6,0.7-0.8,0.6-1.6l-1-0.3C72.8,321,72.7,322.4,73.5,322.4 M92.7,322
	c0-0.6,0.8-0.4,0.6-1.3l-1-0.3C92.3,321.1,91.7,321.8,92.7,322 M110.6,320.9c0.5,0,1.3,1.1,1.6,0.3
	C111.8,320.7,110.9,319.6,110.6,320.9 M146.7,322.8c0.1-1.2-0.9-1.4-1.6-1.9c0.5-0.5,2.7,0.5,2.8-1c-1.8,0.5-3.4-0.7-3.8,1.3
	C146,320.7,145,323.1,146.7,322.8 M112.2,322.4c1,0,2.1-1.6,0.9-1.9C113.3,321.6,112,321.3,112.2,322.4 M141.1,322.2
	c1.1,0.5,1.5-2.1,0.3-1.9C141,320.7,141,321.4,141.1,322.2 M152,322.1c0.5-0.3,0.7-1,0.6-1.9h-0.9
	C152.2,321.2,150.8,322.3,152,322.1 M90.5,323.6c0.4-0.4,0.5-2.2-0.4-2.2C90,322.1,89.4,323.4,90.5,323.6 M142.6,322.5
	c1,0.4,1.4-1.3,0.6-1.6C143.1,321.5,142.4,321.5,142.6,322.5 M134.5,322.6l1.3,0.3c-0.3-1,0.8-0.6,0.6-1.6
	C135.4,321.4,134.8,321.9,134.5,322.6 M160.2,322c0.7,0.6,1.6,0,1.6-0.9C160.8,320.9,160.5,321.5,160.2,322 M84.2,324.3
	c0.5-0.6,0.4-2.3-0.6-2.2C83.6,323,83.3,324.2,84.2,324.3 M126,323.6c1.4,0,1.2-1.5,0.9-1.9C126.8,322.4,125.7,322.3,126,323.6
	 M131.3,323.2h1.9l0.3-0.9c-0.8,0.1-1.2-0.1-1.6-0.3L131.3,323.2z M155.8,324.3c1.2,0,0.9-1.4,0.9-2.5
	C155.5,322.1,155.5,323,155.8,324.3 M65.1,324.4c1.2,0.2,0.8-1.1,1.2-1.6C65.5,322.9,65,323.4,65.1,324.4 M97.1,323.5
	c0.8,0,1.7-0.1,1.6-0.9C97.7,322.4,97.4,323,97.1,323.5 M99.3,324.2h0.9l0.3-1l-0.9-0.6C99.7,323.3,99,323.2,99.3,324.2 M57.5,325.1
	l1,0.3c0.3-0.6,1.2-1.9,0-2.2C58.4,324.1,57.7,324.3,57.5,325.1 M138.6,323.7c0.8,0,1.2-0.5,1.2-1.2
	C138.8,322.4,138.4,322.8,138.6,323.7 M67.6,323.7c0.1,1.4,2.5,0.4,2.5-0.3C69,323.3,68.3,323.6,67.6,323.7 M108.1,323.1l-0.3,1.3
	c0.7,0,1.8-1.1,1.3-1.3H108.1z M109.4,324.6l1,0.7c-0.2-0.7,0.4-2.2-0.7-1.9L109.4,324.6z M116.3,324.9c1,0.1,1-0.7,0.9-1.6h-0.9
	V324.9z M153.3,324.3c0.1-0.7,1.2-0.3,1.2-0.9C154,322.4,152.2,323.6,153.3,324.3 M87.7,325.1c-0.1-0.9,1.9,0.3,1.9-0.6
	C89.1,323.4,86.7,324.3,87.7,325.1 M135.8,323.8c-0.1,1.5,1.8,0.8,2.2,0.3C137.1,323.6,136.7,323.3,135.8,323.8 M143,324.1
	c0.7,0.1,0.1,1.4,0.9,1.3c-0.1-1,0.8-1.6-0.3-1.9L143,324.1z M93.4,325.8c0.9,0,0.9-0.8,0.9-1.6h-0.9V325.8z M130.7,325.1
	c0.9,0,1.2-0.7,1.6-1.2C131,323.6,131,324.5,130.7,325.1 M68.2,325.3c0.7-0.2,2.4,0.6,2.2-0.6h-2.2V325.3z M97.5,326
	c0.9,0.3,1.3-1.3,0.6-1.6C97.7,324.8,97.2,325,97.5,326 M72.7,331.6c-1.1-0.2-3.6,0.9-2.2-0.3c-1.1-0.3-3.8-0.6-4.4-0.3
	c4.3,2.4,10.8,0.5,13.2-0.1c-1.6-0.2-4.6-0.6-5.7-0.2l1.9,0.6c-3.6,0.4-3.3-2.2-5.7-2.2l-0.3,0.3c-0.1-0.6,0.4-0.7,0.3-1.3
	c-1.3-1.1-3.9-2.5-5-2.8C67.5,327.4,69.9,329.7,72.7,331.6 M116.9,325.9c1.2,0.3,2.5-0.9,1.2-1.2
	C118.1,325.3,117.2,325.3,116.9,325.9 M149.9,325.9h1.6l0.3-1.6C151.3,325,150.2,325,149.9,325.9 M89.3,327c0.5-0.5,1.7-1.2,0.9-1.9
	C89.3,325,88.9,326.9,89.3,327 M149.3,326.2l-0.3-1.6C148.5,325,148.5,326.2,149.3,326.2 M152.4,325.9c1.2,0.1,1.8-0.2,1.9-1.2
	C153.5,324.9,152.5,324.9,152.4,325.9 M73,327.5c1,0.1,1.7-1.7,0.6-1.9C73.6,326.5,72.9,326.6,73,327.5 M80.8,327.1
	c0.3-0.4,0.4-0.8,0.3-1.5C79.9,325.2,79.8,327.1,80.8,327.1 M63.2,328.5c0.4-1.3-0.7-2.9-1.2-2.2C63.3,326.3,61.3,328.7,63.2,328.5
	 M133.8,325.4c1.2,2.7-1.1,1.6-2.1,2.5c-0.4-1,0.3-1.5-0.7-1.6c-1,0.3-1.1,1.3-1.5,2.2c-0.1,0.8,1.2,0.2,0.9,1.2
	c-1.1,0.2-1.4,0.9-2.5,0.3l-0.3,1.2c4-0.4,6.7-0.6,10.1-2c0.2-0.9-0.9-0.6-0.6-1.5c-1.3-0.2-1.3,0.8-2.6,0.6
	C134.8,327,135.4,326.1,133.8,325.4 M161.2,326.7c0.4-1.1-0.9-2-1.3-1.2C160.5,325.8,160.5,326.6,161.2,326.7 M77.7,327.8
	c0-0.8-0.1-1.6-0.9-1.6C76.8,327,76.8,327.8,77.7,327.8 M82.4,328c0.6-0.4,1.1-2-0.4-1.9C82.3,327.1,82.1,327.8,82.4,328
	 M107.2,327.8c1.2,0.5,2.4-1.7,0.9-1.9C108.1,326.9,107.3,327,107.2,327.8 M138.9,327.5c0.8,0.1,0.8-0.7,0.9-1.3
	c-0.4,0-1.2-1-1.2-0.3C139.3,325.9,138.7,327.1,138.9,327.5 M61.3,328.6c0-1.1,0-2.1-1.3-1.9C60.2,327.7,60.3,328.6,61.3,328.6
	 M92.8,329.2c0.2-0.7,0.6-1.2,0.6-2.2l-0.9-0.3C92.6,327.4,92,328.9,92.8,329.2 M152.4,326.5c0,1.1,1.1,0.8,1.9,0.6
	C154.2,325.9,153.2,326.2,152.4,326.5 M95,329.2c0.3-0.6,0.9-0.9,0.9-1.9H95C95.3,328.1,94,328.8,95,329.2 M101.9,329.1
	c0.1-0.6,0.6-0.8,0.6-1.6l-1.2-0.3C101.3,328.1,101.1,329.1,101.9,329.1 M114.8,329.3c0.6-0.5,0.8-1.8,0-2.2
	C114.5,328.1,113.6,328.7,114.8,329.3 M103.1,329.4c0.2-0.6,0.9-0.6,0.6-1.6l-1-0.3C103,328.1,102.4,329.4,103.1,329.4 M123.2,328.9
	c1.3,0.2,1.4-0.7,1.6-1.6C123.9,327.5,123.3,328,123.2,328.9 M74.9,329c0.9-0.1,2.5,0.3,2.5-0.6C76.6,327.7,75.1,328.2,74.9,329
	 M80.8,330c0.2-1.1-0.2-1.7-1-1.9C79.8,329,79.7,330.1,80.8,330 M119.5,329.9c-0.3-0.7-1-1-1.6-1.3c-0.5,1.6,0,2.6,0,4.4
	c1.1,0.1,1.9-0.2,2.2-0.9c-0.5-0.4-0.8-1.1-1-1.9c0.8-0.4,1.3,0.9,1.6,0c-0.5-0.4-0.8-3-1-2.2C119.7,329.1,120.4,329.3,119.5,329.9
	 M77.7,330c0.9-0.1,1.5-0.7,1.6-1.6C78.3,328.6,77.8,329.1,77.7,330 M89.3,329.9c0.1-0.6,0.9-0.6,0.6-1.6l-0.9,0
	C89.1,328.7,88.6,329.9,89.3,329.9 M116.6,329.6v-1.5h-1C115.6,328.9,115.6,329.7,116.6,329.6 M147.7,328.1c-0.2,0.8,0.6,0.6,1,0.9
	l0.3-1.2L147.7,328.1z M126,330.2l0-1.9C126,328.8,124.7,330.3,126,330.2 M61.7,330.1c0.5,0.6,1.2-0.1,1.2-1
	C62.1,329.1,61.6,329.3,61.7,330.1 M129.2,329.5c0.3-1-0.5-1-1.3-0.9C127.8,329.4,128.6,329.4,129.2,329.5 M112.6,332.8
	c0.2-2.4-1.1-3.3-2.9-3.7C110.3,330.7,112,331.1,112.6,332.8 M145.8,330.3c0.1-0.8-0.1-1.3-1-1.2C144.8,329.9,145,330.4,145.8,330.3
	 M138,331.3c1-0.2,1.7-0.6,2.8-0.6C140.8,328.3,138.1,330,138,331.3 M62,332.9c1.6,0,1.7-1.7,2.5-2.6
	C62.8,330.4,62.4,331.6,62,332.9 M108.8,336.3c0.3-2.2-3.1-3.8-4.8-4c0-0.6,0.8-1.8,0-2.2c-0.1,0.9-0.6,1.4-1.6,1.6
	c-0.3-0.7,0-1.9-1.2-1.6c0.5,1.3-1.3,1.8-2.2,1.6C100.8,334.7,106.3,334,108.8,336.3 M84,332.4h1c0.1-1.1-0.3-1.7-1-1.9
	C84.2,331.6,83.4,331.9,84,332.4 M144.9,330.7c0-0.7-1.1-0.2-1.6-0.3C142.9,331.9,144.8,331.7,144.9,330.7 M80.6,333.7
	c1.5,0.3,0.4-2,1.5-2.2C80.9,331.6,80.4,332.3,80.6,333.7 M85.6,332.7c1,0.2,1.1-0.5,1.3-1.3C85.8,331.3,86,332.2,85.6,332.7
	 M89.7,333c1,0.4,1.3-1.3,0.6-1.6C89.8,331.9,88.8,332.2,89.7,333 M91.9,333.3c2.3-0.3,4.3,1.3,6,0.6c-1.1-0.5-2.9-1.6-2.5-2.5
	c-1.3,0.4-2.4,1-3.4,0C90.7,332,92,332,91.9,333.3 M147.8,332.5c0.9,0,0.9-0.8,0.9-1.6C147.7,330.8,147.7,331.6,147.8,332.5
	 M151.5,332.1c1.2,0.4,1.1-1.1,1.9-0.3c0-0.8-0.7-0.8-1.3-0.9L151.5,332.1z M63.9,334.1c1.2,0.4,1.2-1.8,0.6-2.2
	C63.8,332.2,63.8,333.1,63.9,334.1 M66.4,333.5c-0.1-0.6-0.1-1.3-0.9-1.2C65.4,333.1,65.4,333.8,66.4,333.5 M108.2,333.1
	c0.8,0.6,2.7,1.7,2.5,1.6c-0.6-0.7-2.5-3-2.2-2.5C109.2,333.2,108.4,332.8,108.2,333.1 M135.5,333.2c2.1,0.6,5.3,0.7,6.2-1.3
	C139.6,332.4,137.1,331.7,135.5,333.2 M83.1,333.7c0.9,0.9,1.5-0.3,1.9-1C84,332.7,83.3,333,83.1,333.7 M114.2,335
	c0-1-0.2-1.9-0.7-2.5C113.6,333.4,113.2,334.9,114.2,335 M142.4,333.5c0.9,0.2,2.2-0.7,1.3-1.3C143.6,332.9,141.8,332,142.4,333.5
	 M71.2,334.4l0.3,0.3l0.3,0.3c0.2-1,1,0.1,1.6,0c-0.1-0.7,0-1.2,0.6-1.3c0.5,0.5,2.1,1.1,1.9-0.3C73.5,333.5,72.1,332.8,71.2,334.4
	 M89,334.3c0.7-0.2,2.1,0.3,2.2-0.4l-0.6-0.6l0.6-0.3C90.6,333.3,88.8,334.1,89,334.3 M122.4,337.1c0.1-0.7,2.3-2,1.5-1.6
	c-0.6-0.3-1,0.9-1.2,0c1.5-1,3-2,4.7-2.8C124.7,333.3,121.9,335.2,122.4,337.1 M149.7,334c0.7-0.2,1.4-0.5,1.5-1.3
	c-0.9,0.3-1.1-0.3-1.9-0.3C149.2,333.2,149.4,333.7,149.7,334 M84.6,335.9c0.1-0.6,0.5-0.7,1.2-0.6c-0.1-0.6,0.4-1.8-0.3-1.9
	C85.8,334.6,83.7,335.1,84.6,335.9 M86.5,334.9c1.2,0.5,1.8-1.2,1-1.6C87.2,333.9,86.7,334.3,86.5,334.9 M120.8,336.2
	c0.3-1.2,2.3-2.3,1.9-3.2C122.1,334,120.3,335.3,120.8,336.2 M60.5,335.7c0.1-0.9,1.6-0.4,1.3-1.9h-1
	C61,334.7,59.5,335.3,60.5,335.7 M62.3,336c1.2,0,2.2-1.7,0.6-1.8C62.8,334.8,62.2,335.1,62.3,336 M58.6,335.7h0.9
	c-0.1-0.6,0.3-1.6-0.6-1.2L58.6,335.7z M76.8,335.9c1.3,0.1,1.8-0.6,2.1-1.6C77.7,334.3,77.4,335.3,76.8,335.9 M135.6,336.4
	c-0.6-0.8,0.3-1.1-0.4-1.6l-0.9,0c0.1,1.3,0.5,2.2,1.6,2.5c0.1-1.1,1-1.5,1.2-2.5l-1-0.3C136.2,335.4,136.1,336,135.6,336.4
	 M74.6,335.3C72.5,337.6,75.7,338,74.6,335.3 M72.4,337.9c0.4-0.7,1-1.1,1.2-1.9l-0.9-0.3C72.9,336.4,71.6,337.5,72.4,337.9
	 M93.4,336.4c-0.4,0-2.3,0-1.2,0.3c1.8,0,3.5-0.1,4.4-1c-1.7,0.7-3.2-1-5,0.1C92.4,336.3,93,335.3,93.4,336.4 M82.8,338.1
	c0-0.8,0.2-1.9-0.7-1.9C81.7,336.7,81.6,338.4,82.8,338.1 M139.6,335.7h-1.2C138.1,336.9,139.9,336.9,139.6,335.7 M68,337.9
	c0.9-0.2,2.2-0.1,2.2-1.3C69.1,336.6,68.4,337.1,68,337.9 M86.3,338.4c0.8,0.1,0.8-0.7,0.9-1.2l-0.9-0.6
	C85.9,337.5,86.2,337.2,86.3,338.4 M108.5,337.9c1.7,0.7-1.5-1.3-3.1-1.2H105C106.4,337.1,108.1,337.6,108.5,337.9 M115.3,339.2
	c0.5-1,4.1-1.3,4.2-2.7C118.9,337.1,115,338.6,115.3,339.2 M79.4,337.8c-1.1-0.3-0.9,2.3,0.3,1.6C79.9,338.5,79.2,338.6,79.4,337.8
	 M81.2,338.7c-0.5-0.6-0.4-1.7-1.6-1.6C79.4,338.5,80.4,339.5,81.2,338.7 M60.8,339.5c0.1-0.5,1.1-1.6,0.3-1.9
	C60.9,338,59.9,339.1,60.8,339.5 M69,339.8c0.2-0.7,1-0.8,1.2-1.6C69.4,337.1,68.1,339.3,69,339.8 M78.4,339.7
	c-0.1-1-0.2-1.9-1.3-1.9C77,339,77.8,339.3,78.4,339.7 M90.3,338.3l-0.3,1.2c1.7-0.1,3-0.6,3.8-1.5
	C92.3,337.8,91.9,338.6,90.3,338.3 M111,346.7c0.7-0.9,1.1-2.2,1.2-3.8c-1.4-0.4,0,1.9-0.9,1.9c-0.2-1.9,0.1-3.7-0.1-4.7
	c-0.3-2.3-0.2-1.6-0.6,0.3c-0.2,1.2,0,6.2-0.8,7.7c0.2-1.3,0.1-2,0-2.5c-0.7-4.1-1.8-6-3.2-7.6c1.1,1.4,1.5,7.6,1,8.7
	c1.6-1.5,0.8-4.4,0.4-5.5c1.1,3.1,1.4,8.2,0.1,9.8c-1.3,2.3-1.7,8.3-1.1,10.4c0.4-0.7,0.6-5.4,1.8-8.4c0.8-2.3,0.8-2.6,0.9-4.5
	 M66.8,340.4c0.4-0.5,1-0.7,1-1.6l-1,0C66.6,339,66.1,340.4,66.8,340.4 M76.5,341c0.3-0.8,0.6-1.8-0.6-1.9
	C75.5,339.5,75.8,340.7,76.5,341 M84.1,340.6c-0.1-0.8-0.1-1.7-1-1.6C82.5,339.7,83.3,340.4,84.1,340.6 M80,340.6l0.3,0.6l2.2-0.6
	C81.6,340.6,80.4,339.3,80,340.6 M86.6,341.5c0-0.9,0-1.7-1-1.5C85.6,340.8,85.6,341.6,86.6,341.5 M73.7,342.3
	c0.7-0.7,0.1-1.8-0.7-1.9C73,341.2,72.9,342.2,73.7,342.3 M77.1,341.3c-0.1,1,0.4,1.3,1,1.6c-0.2-1.2,0.1-2.7-0.3-2.2L77.1,341.3z
	 M114.4,363c1.5,2.6-3.9-3.6-2.2-4.7c0.4,1.2,2.4,3.8,3.4,4.4c-0.3-2-2.9-4.6-3.1-6l-0.3,0.9c-0.6-7.3,4.8-9.4,2.2-16.6
	C115.3,349.2,110.4,356.4,114.4,363 M111,350.4c-0.4,2.3-1.6,5.2-1,7.6c-1.9-0.5-0.3,2.4-2.8,2.5c0.8,1.4,1.4,1.8,0.9,2.9
	c1.2-0.2,3.8-0.3,1.9-0.9l1.2-0.3l-3.1-1l1-0.3l-0.6-0.4c0.7-0.4,0.7-1.3,1.2-1.9c-0.3,1.8,3.3,3.9,2.6,5.1c1.4,0.4,1.8,2.3,3.5,0.9
	c-0.7-0.1-1.2-0.5-2.2-0.3C109.3,357.8,111.1,353.4,111,350.4 M80.6,344.4c0.3-1.9,0.4-0.6,1.6-0.3v-1.2c-0.4-0.4-1.4-0.3-2.2-0.3
	C80,343.3,79.8,344.4,80.6,344.4 M111.6,348.3c1.5-0.5,3.3-4.7,2.1-5.3C113.9,344.9,112.5,347.4,111.6,348.3 M116.7,347.3
	c-0.2-1.1,1-2.8,0.3-2.9l-0.6,1.3c-0.3-1-0.1-2.6-1-3.1c0.2,0.8-0.4,2.5,0.4,2.8l0.3-0.6C116.2,345.6,116.2,346.8,116.7,347.3
	 M118.2,346.1c0.2-0.7,0.5-0.7,0.9-0.4v-1C118.2,344.4,117.4,345.7,118.2,346.1 M113.1,356.3c-0.1-3.4,0.8-5.1,0.8-7.5
	C112.7,351.1,112.2,353.2,113.1,356.3 M116.1,349.4c-1.9,2.3-3.9,7.7-2,11.6C112.7,356.7,115.8,351,116.1,349.4 M115.6,353.8
	c-1.4,3.6,1.3,0.5,0.9-1.2C116.2,353.3,115.7,353.4,115.6,353.8 M105.9,361.1c0.3-0.5,1.2-1.9,0.3-2.5
	C106.3,359.4,105,360.5,105.9,361.1 M105.9,364.1c0.6-0.6-0.1-2-0.9-2.9C105.1,362.5,105.3,363.3,105.9,364.1 M118.8,364.5
	c-0.9,0-1.2-0.7-1.6-1.2l0-0.3C116.2,363.8,118.3,365.3,118.8,364.5 M108.1,365.6c0.2-0.2,1.5-1,1.6-0.3c-0.8,0.1-2.3,1.1-1.6,1.6
	h0.9l0.3,0.3c-0.1-0.8-0.8-1.5,0.6-1.3v-0.9C109.5,364.1,107,364.9,108.1,365.6 M110.6,363.7c-1-0.1-3.1,0.3-2.2,0.9
	C108.8,363.9,110.3,364.4,110.6,363.7 M114.4,365.9c1.5-0.2,2.3-0.1,1.2,0.9c0.9,0.1,1.9-1.2,2.2,0c-0.5,0-1.1-0.1-1,0.6
	c0.6,0.2,1.9-0.4,1.9,0.3l-0.6,0.6h1.2c-0.6,0.6,0.2,0.6,0.4,1.2c-0.7,0.5-1.2,1.1-1.9,1.6c3.1,0.2,5.6,2,8.5,0.8
	c-2.1-0.9-3.7-1-5.7-0.8c0.5-1,1.8-0.1,2.2-0.7c-0.6-0.1-0.8-0.7-1.6-0.6c-0.4,0.6-1.7,1.9-2.5,1c0.3-1,2.2-0.4,2.5-1.3
	c-1.1-0.9-3.3-2.7-2.2-3.7C118,365.5,115.3,364.4,114.4,365.9 M112.8,366.8c-0.4,0-0.5-0.5-1.6-0.3C112.3,367.7,116,367,112.8,366.8
	 M123.5,368.6c0.4-0.4,1.8-0.5,1,0.3l1.5-0.7l-0.9-0.3l-3.7-0.6l0.6,0.3l-0.6,0.3c1.1,0.5,2.2-0.9,2.8,0
	C124,368.1,122.6,368.4,123.5,368.6 M109.7,369c-0.8-0.6-0.9-0.2-0.7-1.6h-1.3v1c-2.2,0.3-4.7,2-5,3.1c0.2-0.6,0.8-0.8,1.6-0.9
	l-0.3,0.6c0.5-0.2,1.6,0.4,1.6-0.3c-0.5,0.2-1.4-0.6-0.6-0.6c0.2,0.7,2-0.1,2.2,0.6c-0.9-1.4,0.8-0.5,1.3-1.3l-1.9-0.6
	C107.6,368.8,110.6,369.4,109.7,369 M111.3,368.1c1,0.2,3.3,0,3.7-0.4C113.2,367.2,111.5,368.1,111.3,368.1 M129.8,369.2
	c0.7,1,0.7,0.3,0-0.3c-1.3-0.2-2.2-1-3.4-1.2v0.3C127.7,368.1,128.4,369,129.8,369.2 M111.6,369c1.2-0.1,5.7,0.2,4.4-0.4
	c-1.4,0.2-5.3-0.4-4.7,0.6L111.6,369z M127.3,370.4c-2,0-2.4-1.5-4.7-1.2C123.1,370.7,126,371.6,127.3,370.4 M112.3,369.9l0.3,0.3
	c1.7-0.2,1.5-0.3,3.2,0C120.1,370.3,113.2,369,112.3,369.9 M106,371.5c4.1,0,8.3-0.1,11.3-0.4C112.7,370.8,109.4,370.8,106,371.5
	 M128.9,371.4c-1,0.1-1.1-0.6-2.2-0.3C126.3,372.1,128.8,371.8,128.9,371.4"/>
<path class="st7" d="M111.7,386.7c-8.8,0-17.3-1.7-25.3-5.1c-7.7-3.3-14.7-8-20.7-13.9c-6-6-10.6-12.9-13.9-20.7
	c-3.4-8-5.1-16.5-5.1-25.3c0-8.8,1.7-17.3,5.1-25.3c3.3-7.7,8-14.7,13.9-20.7c6-6,12.9-10.6,20.7-13.9c8-3.4,16.5-5.1,25.3-5.1
	c8.8,0,17.3,1.7,25.3,5.1c7.7,3.3,14.7,8,20.7,13.9c6,6,10.7,12.9,13.9,20.7c3.4,8,5.1,16.5,5.1,25.3c0,8.8-1.7,17.3-5.1,25.3
	c-3.3,7.7-8,14.7-13.9,20.7c-6,6-12.9,10.7-20.7,13.9C129,385,120.5,386.7,111.7,386.7 M111.7,259c-8.5,0-16.7,1.7-24.4,4.9
	c-7.5,3.2-14.2,7.7-19.9,13.4c-5.8,5.8-10.3,12.5-13.4,19.9c-3.3,7.7-4.9,15.9-4.9,24.4c0,8.5,1.7,16.7,4.9,24.4
	c3.2,7.5,7.7,14.2,13.4,19.9c5.8,5.8,12.5,10.3,19.9,13.4c7.7,3.3,15.9,4.9,24.4,4.9c8.5,0,16.7-1.7,24.4-4.9
	c7.5-3.2,14.2-7.7,19.9-13.4c5.8-5.8,10.3-12.5,13.4-19.9c3.3-7.7,4.9-15.9,4.9-24.4c0-8.5-1.7-16.7-4.9-24.4
	c-3.2-7.5-7.7-14.2-13.4-19.9c-5.8-5.8-12.5-10.3-19.9-13.4C128.4,260.7,120.2,259,111.7,259"/>
<path class="st8" d="M111.7,386.7c-8.8,0-17.3-1.7-25.3-5.1c-7.7-3.3-14.7-8-20.7-13.9c-6-6-10.6-12.9-13.9-20.7
	c-3.4-8-5.1-16.5-5.1-25.3c0-8.8,1.7-17.3,5.1-25.3c3.3-7.7,8-14.7,13.9-20.7c6-6,12.9-10.6,20.7-13.9c8-3.4,16.5-5.1,25.3-5.1
	c8.8,0,17.3,1.7,25.3,5.1c7.7,3.3,14.7,8,20.7,13.9c6,6,10.7,12.9,13.9,20.7c3.4,8,5.1,16.5,5.1,25.3c0,8.8-1.7,17.3-5.1,25.3
	c-3.3,7.7-8,14.7-13.9,20.7c-6,6-12.9,10.7-20.7,13.9C129,385,120.5,386.7,111.7,386.7z M111.7,259c-8.5,0-16.7,1.7-24.4,4.9
	c-7.5,3.2-14.2,7.7-19.9,13.4c-5.8,5.8-10.3,12.5-13.4,19.9c-3.3,7.7-4.9,15.9-4.9,24.4c0,8.5,1.7,16.7,4.9,24.4
	c3.2,7.5,7.7,14.2,13.4,19.9c5.8,5.8,12.5,10.3,19.9,13.4c7.7,3.3,15.9,4.9,24.4,4.9c8.5,0,16.7-1.7,24.4-4.9
	c7.5-3.2,14.2-7.7,19.9-13.4c5.8-5.8,10.3-12.5,13.4-19.9c3.3-7.7,4.9-15.9,4.9-24.4c0-8.5-1.7-16.7-4.9-24.4
	c-3.2-7.5-7.7-14.2-13.4-19.9c-5.8-5.8-12.5-10.3-19.9-13.4C128.4,260.7,120.2,259,111.7,259z"/>
</svg>
